<?xml version="1.0" encoding="UTF-8"?>
<svg id="Layer_2" data-name="Layer 2" xmlns="http://www.w3.org/2000/svg" viewBox="0 0 81.42 15.37">
  <defs>
    <style>
      .cls-1, .cls-2 {
        fill: #f4f4f4;
      }

      .cls-3, .cls-2 {
        isolation: isolate;
      }
    </style>
  </defs>
  <g id="Layer_1-2" data-name="Layer 1">
    <g>
      <g class="cls-3">
        <path class="cls-1" d="m73.41,3.25h.55c.02.73.49,1.14,1.24,1.14.63,0,1.08-.31,1.08-.96,0-.58-.43-.88-1.2-.88h-.29v-.43h.28c.71,0,1.07-.3,1.07-.78s-.45-.8-.99-.8c-.66,0-1.05.43-1.05,1.06h-.55c0-.9.61-1.5,1.62-1.5.84,0,1.52.46,1.52,1.25,0,.51-.31.81-.75.96v.02c.64.17.92.57.92,1.16,0,.87-.71,1.37-1.64,1.37-1,0-1.79-.57-1.81-1.6Z"/>
        <path class="cls-1" d="m77.58,0h1.73c1.43,0,2.11.97,2.11,2.39s-.72,2.36-2.15,2.36h-1.68V0Zm1.66,4.23c1.12,0,1.56-.72,1.56-1.83s-.4-1.87-1.52-1.87h-1.11v3.71h1.06Z"/>
      </g>
      <g class="cls-3">
        <path class="cls-2" d="m0,0h11.87v1.66h-4.99v13.34h-1.89V1.66H0V0Z"/>
        <path class="cls-2" d="m10.47,9.58c0-3.15,2.05-5.7,5.14-5.7,3.25,0,4.99,2.52,4.99,6.1h-8.39c.13,2.2,1.32,3.88,3.5,3.88,1.57,0,2.62-.75,3-2.22h1.66c-.5,2.33-2.2,3.65-4.66,3.65-3.31,0-5.24-2.56-5.24-5.7Zm1.78-.88h6.52c-.1-2.16-1.22-3.48-3.17-3.48s-3.1,1.51-3.36,3.48Z"/>
        <path class="cls-2" d="m21.49,9.58c0-3.15,2.01-5.7,5.24-5.7,2.56,0,4.26,1.47,4.63,3.77h-1.72c-.25-1.47-1.28-2.37-2.91-2.37-2.31,0-3.5,1.91-3.5,4.3s1.2,4.28,3.5,4.28c1.76,0,2.81-1.01,2.96-2.68h1.68c-.23,2.6-1.93,4.11-4.63,4.11-3.23,0-5.24-2.56-5.24-5.7Z"/>
        <path class="cls-2" d="m37.57,9.58c0-3.15,2.01-5.7,5.24-5.7s5.22,2.56,5.22,5.7-1.97,5.7-5.22,5.7-5.24-2.56-5.24-5.7Zm8.72,0c0-2.39-1.17-4.3-3.48-4.3s-3.5,1.91-3.5,4.3,1.2,4.28,3.5,4.28,3.48-1.89,3.48-4.28Z"/>
        <path class="cls-2" d="m51.23,5.58h.04c.78-1.03,1.87-1.68,3.44-1.68,2.26,0,3.65,1.24,3.65,3.48v7.61h-1.7v-7.47c0-1.41-.92-2.2-2.45-2.2-1.72,0-2.98,1.22-2.98,3v6.67h-1.7V4.15h1.7v1.43Z"/>
        <path class="cls-2" d="m60.39,0h1.7v2.1h-1.7V0Zm0,4.15h1.7v10.84h-1.7V4.15Z"/>
        <path class="cls-2" d="m63.58,9.58c0-3.15,2.01-5.7,5.24-5.7,2.56,0,4.26,1.47,4.63,3.77h-1.72c-.25-1.47-1.28-2.37-2.91-2.37-2.31,0-3.5,1.91-3.5,4.3s1.2,4.28,3.5,4.28c1.76,0,2.81-1.01,2.96-2.68h1.68c-.23,2.6-1.93,4.11-4.63,4.11-3.23,0-5.24-2.56-5.24-5.7Z"/>
        <g class="cls-3">
          <path class="cls-1" d="m35.11,5.85h0v7.05c0,.75.4,1.01,1.09,1.01.34,0,.71-.08.9-.15h.06v1.47c-.4.08-.86.15-1.36.15-1.38,0-2.39-.57-2.39-2.1v-7.42h-1.57v-1.38h1.87"/>
        </g>
      </g>
      <path class="cls-2" d="m33.31,3.63l1.01-1.01,1.41,1.41c.24.24.57.38.91.38h.53v1.43h-1.02c-.41,0-.8-.16-1.09-.45l-1.76-1.76Z"/>
    </g>
  </g>
</svg>