<?xml version="1.0" encoding="UTF-8" standalone="no"?>
<!-- Created with Inkscape (http://www.inkscape.org/) -->

<svg
   xmlns:dc="http://purl.org/dc/elements/1.1/"
   xmlns:cc="http://creativecommons.org/ns#"
   xmlns:rdf="http://www.w3.org/1999/02/22-rdf-syntax-ns#"
   xmlns:svg="http://www.w3.org/2000/svg"
   xmlns="http://www.w3.org/2000/svg"
   xmlns:sodipodi="http://sodipodi.sourceforge.net/DTD/sodipodi-0.dtd"
   xmlns:inkscape="http://www.inkscape.org/namespaces/inkscape"
   width="60.467228mm"
   height="11.419769mm"
   viewBox="0 0 60.467228 11.419769"
   version="1.1"
   id="svg476"
   inkscape:version="0.92.3 (2405546, 2018-03-11)"
   sodipodi:docname="Liqcreate logo vector.svg">
  <defs
     id="defs470">
    <clipPath
       clipPathUnits="userSpaceOnUse"
       id="clipPath118">
      <path
         d="M 397.598,24.799 H 569.054 V 57.17 H 397.598 Z"
         id="path116"
         inkscape:connector-curvature="0" />
    </clipPath>
    <clipPath
       clipPathUnits="userSpaceOnUse"
       id="clipPath160">
      <path
         d="m 552.45606,18.19191 -13.18277,32.052376 26.96266,11.089432 13.18277,-32.052376 z"
         id="path158"
         inkscape:connector-curvature="0" />
    </clipPath>
    <radialGradient
       fx="-0.87260503"
       fy="0.488426"
       cx="0"
       cy="0"
       r="1"
       gradientUnits="userSpaceOnUse"
       gradientTransform="matrix(-4.0059361,9.7399656,9.7399656,4.0059361,559.37306,36.373559)"
       spreadMethod="pad"
       id="radialGradient174">
      <stop
         style="stop-opacity:1;stop-color:#fff424"
         offset="0"
         id="stop162" />
      <stop
         style="stop-opacity:1;stop-color:#fac308"
         offset="0.0643305"
         id="stop164" />
      <stop
         style="stop-opacity:1;stop-color:#fac308"
         offset="0.135738"
         id="stop166" />
      <stop
         style="stop-opacity:1;stop-color:#f3812f"
         offset="0.206173"
         id="stop168" />
      <stop
         style="stop-opacity:1;stop-color:#ee5233"
         offset="0.645161"
         id="stop170" />
      <stop
         style="stop-opacity:1;stop-color:#ea3035"
         offset="1"
         id="stop172" />
    </radialGradient>
    <clipPath
       clipPathUnits="userSpaceOnUse"
       id="clipPath194">
      <path
         d="M 545.86198,63.035202 572.1489,53.235626 561.00633,23.346179 534.71941,33.145755 Z"
         id="path192"
         inkscape:connector-curvature="0" />
    </clipPath>
    <radialGradient
       fx="-0.040408999"
       fy="-0.999183"
       cx="0"
       cy="0"
       r="1"
       gradientUnits="userSpaceOnUse"
       gradientTransform="matrix(7.0099391,-2.6132552,-2.2640696,-6.0732639,555.21998,49.332186)"
       spreadMethod="pad"
       id="radialGradient202">
      <stop
         style="stop-opacity:1;stop-color:#ffffff"
         offset="0"
         id="stop196" />
      <stop
         style="stop-opacity:1;stop-color:#ffffff"
         offset="0.39492951"
         id="stop198" />
      <stop
         style="stop-opacity:1;stop-color:#d3d2d2"
         offset="1"
         id="stop200" />
    </radialGradient>
    <clipPath
       clipPathUnits="userSpaceOnUse"
       id="clipPath212">
      <path
         d="M 397.598,24.799 H 569.054 V 57.17 H 397.598 Z"
         id="path210"
         inkscape:connector-curvature="0" />
    </clipPath>
    <clipPath
       clipPathUnits="userSpaceOnUse"
       id="clipPath234">
      <path
         d="M 544.23706,49.782148 H 563.6175 V 30.489402 h -19.38044 z"
         id="path232"
         inkscape:connector-curvature="0" />
    </clipPath>
    <radialGradient
       fx="0.27474001"
       fy="0.0149079"
       cx="0"
       cy="0"
       r="1"
       gradientUnits="userSpaceOnUse"
       gradientTransform="matrix(10.286283,0,0,-10.286283,554.3014,40.05331)"
       spreadMethod="pad"
       id="radialGradient242">
      <stop
         style="stop-opacity:1;stop-color:#4081cb"
         offset="0"
         id="stop236" />
      <stop
         style="stop-opacity:1;stop-color:#222d5f"
         offset="0.827957"
         id="stop238" />
      <stop
         style="stop-opacity:1;stop-color:#23255b"
         offset="1"
         id="stop240" />
    </radialGradient>
    <clipPath
       clipPathUnits="userSpaceOnUse"
       id="clipPath256">
      <path
         d="M 397.598,24.799 H 569.054 V 57.17 H 397.598 Z"
         id="path254"
         inkscape:connector-curvature="0" />
    </clipPath>
  </defs>
  <sodipodi:namedview
     id="base"
     pagecolor="#ffffff"
     bordercolor="#666666"
     borderopacity="1.0"
     inkscape:pageopacity="0.0"
     inkscape:pageshadow="2"
     inkscape:zoom="0.98994949"
     inkscape:cx="47.911577"
     inkscape:cy="85.047824"
     inkscape:document-units="mm"
     inkscape:current-layer="layer1"
     showgrid="false"
     fit-margin-top="0"
     fit-margin-left="0"
     fit-margin-right="0"
     fit-margin-bottom="0"
     inkscape:window-width="1920"
     inkscape:window-height="1017"
     inkscape:window-x="-8"
     inkscape:window-y="-8"
     inkscape:window-maximized="1" />
  <metadata
     id="metadata473">
    <rdf:RDF>
      <cc:Work
         rdf:about="">
        <dc:format>image/svg+xml</dc:format>
        <dc:type
           rdf:resource="http://purl.org/dc/dcmitype/StillImage" />
        <dc:title></dc:title>
      </cc:Work>
    </rdf:RDF>
  </metadata>
  <g
     inkscape:label="Laag 1"
     inkscape:groupmode="layer"
     id="layer1"
     transform="translate(-46.873529,-64.504401)">
    <g
       transform="matrix(0.35277777,0,0,-0.35277777,-93.390348,84.672706)"
       id="g367">
      <g
         transform="translate(397.5984,47.5047)"
         id="g106">
        <path
           inkscape:connector-curvature="0"
           id="path108"
           style="fill:#f14624;fill-opacity:1;fill-rule:nonzero;stroke:none"
           d="m 0,0 v -14.586 h 12.579 v 2.541 H 2.542 V 0 Z" />
      </g>
      <path
         inkscape:connector-curvature="0"
         id="path110"
         style="fill:#f14624;fill-opacity:1;fill-rule:nonzero;stroke:none"
         d="m 415.025,32.918 h -2.541 v 14.587 h 2.541 z" />
      <g
         id="g112">
        <g
           clip-path="url(#clipPath118)"
           id="g114">
          <g
             transform="translate(434.3741,40.1583)"
             id="g120">
            <path
               inkscape:connector-curvature="0"
               id="path122"
               style="fill:#f14624;fill-opacity:1;fill-rule:nonzero;stroke:none"
               d="M 0,0 C 0,1.41 -0.452,2.563 -1.356,3.46 -2.26,4.357 -3.417,4.805 -4.827,4.805 h -4.079 c -1.395,0 -2.545,-0.448 -3.449,-1.345 -0.904,-0.897 -1.356,-2.05 -1.356,-3.46 0,-1.396 0.452,-2.527 1.356,-3.396 0.904,-0.868 2.054,-1.302 3.449,-1.302 h 2.093 c 1.666,0 2.655,0.021 2.969,0.064 l -1.773,1.794 h 3.738 l 0.534,-0.556 C -0.449,-2.499 0,-1.367 0,0 m 2.52,-7.24 h -3.737 l -0.577,0.577 C -2.72,-7.048 -3.73,-7.24 -4.827,-7.24 h -4.079 c -2.121,0 -3.876,0.705 -5.264,2.114 -1.388,1.41 -2.082,3.19 -2.082,5.34 0,2.135 0.686,3.858 2.061,5.168 1.373,1.31 3.135,1.965 5.285,1.965 h 4.079 c 2.164,0 3.93,-0.655 5.297,-1.965 1.367,-1.31 2.05,-3.033 2.05,-5.168 0,-2.136 -0.698,-3.923 -2.093,-5.361 z" />
          </g>
          <g
             transform="translate(454.3637,32.9185)"
             id="g124">
            <path
               inkscape:connector-curvature="0"
               id="path126"
               style="fill:#f14624;fill-opacity:1;fill-rule:nonzero;stroke:none"
               d="m 0,0 h -8.244 c -2.121,0 -3.876,0.705 -5.264,2.114 -1.388,1.41 -2.082,3.189 -2.082,5.339 0,2.136 0.686,3.859 2.061,5.169 1.373,1.309 3.135,1.965 5.285,1.965 H 0 v -2.542 h -8.244 c -1.395,0 -2.545,-0.448 -3.449,-1.345 -0.904,-0.897 -1.356,-2.051 -1.356,-3.46 0,-1.396 0.452,-2.528 1.356,-3.396 0.904,-0.868 2.054,-1.303 3.449,-1.303 H 0 Z" />
          </g>
          <g
             transform="translate(473.8835,32.9185)"
             id="g128">
            <path
               inkscape:connector-curvature="0"
               id="path130"
               style="fill:#f14624;fill-opacity:1;fill-rule:nonzero;stroke:none"
               d="m 0,0 h -3.759 l -4.079,4.1 h -5.488 v 2.521 h 6.834 c 0.939,0 1.729,0.206 2.37,0.619 0.726,0.484 1.089,1.174 1.089,2.071 0,1.823 -1.153,2.734 -3.459,2.734 h -8.329 V 0 h -2.542 v 14.587 h 10.465 c 1.879,0 3.396,-0.406 4.549,-1.218 1.324,-0.925 1.986,-2.285 1.986,-4.079 0,-1.225 -0.384,-2.278 -1.153,-3.161 -0.712,-0.826 -1.68,-1.402 -2.905,-1.73 z" />
          </g>
          <path
             inkscape:connector-curvature="0"
             id="path132"
             style="fill:#f14624;fill-opacity:1;fill-rule:nonzero;stroke:none"
             d="m 488.171,39.048 h -8.329 v 2.541 h 8.329 z m 0.662,-6.13 h -12.6 v 14.587 h 12.6 V 44.964 H 478.774 V 35.46 h 10.059 z" />
          <g
             transform="translate(510.4028,32.9185)"
             id="g134">
            <path
               inkscape:connector-curvature="0"
               id="path136"
               style="fill:#f14624;fill-opacity:1;fill-rule:nonzero;stroke:none"
               d="M 0,0 -3.268,0.021 -5.724,4.1 h -6.919 l 1.538,2.521 h 3.865 l -2.541,4.207 -6.578,-10.807 h -3.268 l 7.924,13.177 c 0.199,0.342 0.476,0.655 0.832,0.94 0.428,0.327 0.812,0.491 1.154,0.491 0.37,0 0.754,-0.157 1.153,-0.47 0.342,-0.27 0.619,-0.591 0.833,-0.961 z" />
          </g>
          <g
             transform="translate(520.6113,44.9636)"
             id="g138">
            <path
               inkscape:connector-curvature="0"
               id="path140"
               style="fill:#f14624;fill-opacity:1;fill-rule:nonzero;stroke:none"
               d="m 0,0 h -5.745 v -12.045 h -2.52 V 0 h -5.766 V 2.541 H 0 Z" />
          </g>
          <path
             inkscape:connector-curvature="0"
             id="path142"
             style="fill:#f14624;fill-opacity:1;fill-rule:nonzero;stroke:none"
             d="m 534.279,39.048 h -8.329 v 2.541 h 8.329 z m 0.662,-6.13 h -12.6 v 14.587 h 12.6 V 44.964 H 524.882 V 35.46 h 10.059 z" />
        </g>
      </g>
      <g
         id="g144">
        <g
           id="g146">
          <g
             id="g152">
            <g
               id="g154">
              <g
                 clip-path="url(#clipPath160)"
                 id="g156">
                <path
                   inkscape:connector-curvature="0"
                   id="path176"
                   style="fill:url(#radialGradient174);stroke:none"
                   d="m 564.436,48.646 c 0.204,-3.426 -1.826,-5.582 -2.39,-6.172 v 0 c -1.454,-1.525 -3.361,-2.588 -5.294,-3.445 v 0 c -2.261,-1.002 -2.728,-0.772 -3.539,-1.8 v 0 c -1.203,-1.528 -1.972,-3.266 -2.372,-4.249 v 0 c -1.19,-2.932 -0.15,-4.185 -0.15,-4.185 v 0 c 0.611,-0.354 4.604,-2.376 7.982,-3.4 v 0 c 0.876,-0.264 1.98,-0.381 1.98,-0.381 v 0 c 0.717,1.375 0.38,1.492 -0.121,2.265 v 0 c -0.381,0.587 -0.845,1.174 -0.954,1.529 v 0 c -0.379,1.228 0.01,3.452 1.532,3.667 v 0 c 0.486,0.068 1.032,0.044 1.586,0.02 v 0 c 0.957,-0.042 1.943,-0.083 2.709,0.349 v 0 c 0.772,0.434 0.576,1.327 0.804,2.039 v 0 c 0.14,0.438 0.422,0.854 0.78,1.144 v 0 c 0.492,0.398 -0.245,0.67 -0.173,0.982 v 0 c 0.036,0.154 0.523,-0.03 0.584,0.293 v 0 c 0.035,0.183 -0.291,1.271 0.059,1.247 v 0 c 1.003,-0.071 1.582,0.148 1.254,1.306 v 0 c -0.463,1.625 -1.384,3.24 -1.749,4.969 v 0 c -0.37,1.754 -0.09,3.612 -0.923,5.23 v 0 c -1.774,3.44 -4.485,4.458 -4.485,4.458 v 0 c 0,0 2.658,-2.142 2.88,-5.866" />
              </g>
            </g>
          </g>
        </g>
      </g>
      <g
         id="g977">
        <g
           id="g686">
          <g
             id="g178">
            <g
               id="g180">
              <g
                 id="g186">
                <g
                   id="g188">
                  <g
                     clip-path="url(#clipPath194)"
                     id="g190">
                    <path
                       inkscape:connector-curvature="0"
                       id="path204"
                       style="fill:url(#radialGradient202);stroke:none"
                       d="m 549.875,54.736 c -0.65,-0.582 -1.257,-1.228 -1.617,-2.018 v 0 c -0.221,-0.484 -0.476,-0.937 -0.606,-1.453 v 0 l -0.195,-1.128 c -0.669,-2.498 0.12,-6.388 0.724,-8.789 v 0 c 0.51,-2.032 -0.338,-2.893 -1.361,-4.59 v 0 c -0.495,-0.823 -1.101,-1.614 -1.721,-2.35 v 0 c -0.228,-0.272 -1.682,-1.153 -1.54,-1.41 v 0 c 0.422,-0.773 1.667,-1.308 2.407,-1.682 v 0 c 0.713,-0.359 2.362,-1.413 3.212,-1.356 v 0 c 0.382,0.025 0.051,1.205 0.111,1.465 v 0 c 0.187,0.812 0.736,2.342 0.981,2.79 v 0 c 1.182,2.164 1.448,3.628 2.928,4.439 v 0 c 4.411,2.415 9.146,2.586 10.252,9.768 v 0 l -0.209,1.237 c -0.682,4.258 -4.734,6.722 -8.391,6.816 v 0 c -0.074,0.002 -0.147,0.004 -0.221,0.004 v 0 c -1.768,0 -3.429,-0.557 -4.754,-1.743" />
                  </g>
                </g>
              </g>
            </g>
          </g>
          <g
             id="g206">
            <g
               clip-path="url(#clipPath212)"
               id="g208">
              <g
                 transform="translate(554.5879,56.8062)"
                 id="g214">
                <path
                   inkscape:connector-curvature="0"
                   id="path216"
                   style="fill:#918f90;fill-opacity:1;fill-rule:nonzero;stroke:none"
                   d="m 0,0 c -1.023,0 -2.002,-0.171 -2.911,-0.507 -0.968,-0.359 -1.813,-0.892 -2.511,-1.585 -1.928,-1.912 -2.318,-3.955 -2.443,-5.326 -0.22,-2.409 0.237,-4.544 0.605,-6.26 0.099,-0.463 0.193,-0.901 0.269,-1.316 0.179,-0.986 0.208,-1.682 0.093,-2.256 -0.11,-0.552 -0.341,-0.968 -0.635,-1.494 -0.034,-0.062 -0.069,-0.125 -0.105,-0.19 -0.505,-0.914 -1.055,-1.761 -1.591,-2.45 -0.855,-1.097 -1.69,-1.827 -2.484,-2.169 -0.075,-0.033 -0.075,-0.061 -0.076,-0.078 -0.004,-0.153 0.263,-0.541 1.028,-1.132 0.603,-0.466 1.388,-0.959 2.049,-1.286 1.627,-0.805 2.875,-1.248 3.515,-1.248 0.173,0 0.297,0.034 0.35,0.095 0.038,0.045 0.049,0.119 0.032,0.222 -0.134,0.833 0.016,1.861 0.446,3.056 0.361,1.006 0.842,1.916 1.171,2.513 0.24,0.433 0.605,1.077 1.014,1.662 0.529,0.758 0.978,1.206 1.372,1.369 0.351,0.145 0.727,0.29 1.126,0.443 1.725,0.665 3.873,1.491 5.814,3.097 1.671,1.382 2.863,3.301 3.11,5.006 0.119,0.82 0.11,1.645 -0.027,2.453 -0.322,1.907 -1.339,3.641 -2.863,4.882 -0.47,0.383 -1.172,0.927 -1.842,1.233 L 4.497,-1.262 4.488,-1.257 C 3.801,-0.848 3.095,-0.527 2.502,-0.354 1.694,-0.119 0.852,0 0,0 m -5.197,-27.661 c -0.492,0 -1.528,0.223 -3.676,1.286 -0.681,0.337 -1.49,0.844 -2.111,1.324 -0.345,0.267 -0.62,0.514 -0.815,0.734 -0.243,0.274 -0.358,0.501 -0.353,0.696 0.002,0.103 0.044,0.293 0.295,0.402 0.737,0.317 1.524,1.01 2.341,2.059 0.524,0.674 1.063,1.504 1.559,2.402 0.037,0.065 0.072,0.129 0.107,0.191 0.571,1.026 0.858,1.54 0.501,3.508 -0.075,0.409 -0.168,0.844 -0.267,1.305 -0.373,1.74 -0.837,3.904 -0.611,6.369 0.13,1.427 0.536,3.556 2.549,5.552 0.735,0.729 1.624,1.29 2.641,1.667 0.949,0.352 1.971,0.53 3.037,0.53 0.887,0 1.762,-0.124 2.603,-0.369 0.62,-0.181 1.352,-0.512 2.063,-0.934 C 5.371,-1.264 6.094,-1.823 6.578,-2.217 8.17,-3.514 9.233,-5.326 9.57,-7.32 9.713,-8.165 9.722,-9.029 9.598,-9.886 9.467,-10.789 9.087,-11.759 8.5,-12.693 7.934,-13.59 7.195,-14.43 6.36,-15.12 c -1.987,-1.644 -4.165,-2.482 -5.916,-3.156 -0.396,-0.152 -0.77,-0.296 -1.117,-0.44 -0.222,-0.092 -0.613,-0.382 -1.213,-1.241 -0.399,-0.571 -0.758,-1.204 -0.993,-1.63 -0.324,-0.586 -0.795,-1.479 -1.148,-2.46 -0.409,-1.136 -0.553,-2.104 -0.429,-2.875 0.034,-0.213 -0.004,-0.386 -0.115,-0.516 -0.126,-0.148 -0.337,-0.223 -0.626,-0.223" />
              </g>
            </g>
          </g>
          <g
             id="g218">
            <g
               id="g220">
              <g
                 id="g226">
                <g
                   id="g228">
                  <g
                     clip-path="url(#clipPath234)"
                     id="g230">
                    <path
                       inkscape:connector-curvature="0"
                       id="path244"
                       style="fill:url(#radialGradient242);stroke:none"
                       d="m 548.032,44.03 c 0.38,-1.773 1.048,-3.046 0.532,-4.873 v 0 c -0.202,-0.716 -0.933,-1.724 -1.728,-3.071 v 0 c -1.022,-1.731 -2.599,-3.194 -2.599,-3.194 v 0 c 0.116,-0.247 1.584,-0.995 2.112,-1.232 v 0 c 0.185,-0.083 2.423,-1.171 2.423,-1.171 v 0 c 0.028,0.528 0.19,1.671 1.334,4.161 v 0 c 0.592,1.29 0.835,2.047 1.517,2.977 v 0 c 1.074,1.466 1.841,1.584 3.051,2.037 v 0 c 3.753,1.405 8.944,4.35 8.418,9.357 v 0 c -0.009,0.082 -0.032,0.151 -0.047,0.232 v 0 c -0.881,-0.13 -1.966,-0.652 -3.747,-0.496 v 0 c -1.266,0.109 -2.329,0.756 -3.633,0.747 v 0 c -1.261,-0.009 -2.374,-0.619 -3.646,-0.589 v 0 c -1.325,0.032 -2.969,0.748 -4.275,0.867 v 0 c -0.357,-1.77 -0.086,-4.011 0.288,-5.752" />
                  </g>
                </g>
              </g>
            </g>
          </g>
          <g
             transform="translate(549.9153,48.1194)"
             id="g246">
            <path
               inkscape:connector-curvature="0"
               id="path248"
               style="fill:#f4f4f4;fill-opacity:1;fill-rule:nonzero;stroke:none"
               d="M 0,0 -2.462,0.605 Z" />
          </g>
        </g>
        <g
           id="g258"
           transform="translate(549.9155,47.9979)">
          <path
             d="M 0,0 C -0.01,0 -0.019,0.001 -0.029,0.004 L -2.492,0.609 C -2.557,0.625 -2.596,0.69 -2.58,0.755 -2.564,0.82 -2.499,0.86 -2.434,0.844 L 0.029,0.239 C 0.094,0.223 0.134,0.157 0.118,0.092 0.104,0.037 0.054,0 0,0"
             style="fill:#f4f4f4;fill-opacity:1;fill-rule:nonzero;stroke:none"
             id="path260"
             inkscape:connector-curvature="0" />
        </g>
        <g
           id="g262"
           transform="translate(547.809,50.9413)">
          <path
             d="M 0,0 2.461,-0.61"
             style="fill:#ffffff;fill-opacity:1;fill-rule:nonzero;stroke:none"
             id="path264"
             inkscape:connector-curvature="0" />
        </g>
        <g
           id="g266"
           transform="translate(550.2703,50.2102)">
          <path
             d="m 0,0 c -0.01,0 -0.019,0.001 -0.029,0.004 l -2.462,0.609 c -0.065,0.016 -0.104,0.082 -0.088,0.147 0.016,0.065 0.082,0.105 0.147,0.089 L 0.029,0.239 C 0.094,0.223 0.134,0.157 0.118,0.092 0.104,0.037 0.054,0 0,0"
             style="fill:#f4f4f4;fill-opacity:1;fill-rule:nonzero;stroke:none"
             id="path268"
             inkscape:connector-curvature="0" />
        </g>
        <g
           id="g270"
           transform="translate(548.5303,52.7187)">
          <path
             d="M 0,0 2.688,-0.708"
             style="fill:#f4f4f4;fill-opacity:1;fill-rule:nonzero;stroke:none"
             id="path272"
             inkscape:connector-curvature="0" />
        </g>
        <g
           id="g274"
           transform="translate(551.2189,51.8896)">
          <path
             d="m 0,0 c -0.01,0 -0.021,0.001 -0.031,0.004 l -2.688,0.708 c -0.065,0.017 -0.104,0.083 -0.087,0.148 0.017,0.065 0.083,0.103 0.148,0.086 L 0.031,0.239 C 0.096,0.221 0.134,0.155 0.117,0.09 0.103,0.036 0.054,0 0,0"
             style="fill:#f4f4f4;fill-opacity:1;fill-rule:nonzero;stroke:none"
             id="path276"
             inkscape:connector-curvature="0" />
        </g>
        <g
           id="g278"
           transform="translate(549.7419,54.3803)">
          <path
             d="M 0,0 2.274,-0.689"
             style="fill:#ffffff;fill-opacity:1;fill-rule:nonzero;stroke:none"
             id="path280"
             inkscape:connector-curvature="0" />
        </g>
        <g
           id="g282"
           transform="translate(552.016,53.57)">
          <path
             d="m 0,0 c -0.012,0 -0.023,0.002 -0.035,0.005 l -2.274,0.689 c -0.064,0.02 -0.101,0.087 -0.081,0.151 0.019,0.065 0.087,0.101 0.151,0.081 L 0.035,0.237 C 0.099,0.218 0.135,0.15 0.116,0.086 0.1,0.034 0.052,0 0,0"
             style="fill:#f4f4f4;fill-opacity:1;fill-rule:nonzero;stroke:none"
             id="path284"
             inkscape:connector-curvature="0" />
        </g>
        <g
           id="g286"
           transform="translate(547.4576,46.5678)">
          <path
             d="M 0,0 2.453,-0.643"
             style="fill:#f4f4f4;fill-opacity:1;fill-rule:nonzero;stroke:none"
             id="path288"
             inkscape:connector-curvature="0" />
        </g>
        <g
           id="g290"
           transform="translate(549.9107,45.8039)">
          <path
             d="m 0,0 c -0.01,0 -0.021,0.001 -0.031,0.004 l -2.453,0.643 c -0.065,0.017 -0.103,0.083 -0.086,0.148 0.017,0.064 0.083,0.103 0.148,0.086 L 0.031,0.239 C 0.095,0.222 0.134,0.155 0.117,0.091 0.103,0.036 0.054,0 0,0"
             style="fill:#f4f4f4;fill-opacity:1;fill-rule:nonzero;stroke:none"
             id="path292"
             inkscape:connector-curvature="0" />
        </g>
        <g
           id="g294"
           transform="translate(547.416,49.4388)">
          <path
             d="M 0,0 C -0.138,-1.231 -0.09,-2.641 0.143,-4.19 0.338,-5.484 0.622,-6.643 0.873,-7.627 1.06,-8.364 1.117,-8.943 1.05,-9.45 0.987,-9.925 0.821,-10.31 0.645,-10.719 c -0.272,-0.63 -0.938,-1.836 -1.686,-2.922 -0.675,-0.979 -1.669,-2.23 -2.578,-2.629 -0.036,-0.016 -0.096,-0.048 -0.097,-0.083 -10e-4,-0.037 0.034,-0.246 0.817,-0.754 0.424,-0.275 0.997,-0.593 1.751,-0.974 0.182,-0.092 0.356,-0.18 0.52,-0.263 1.167,-0.592 1.938,-0.983 2.262,-0.983 0.025,0 0.069,0.002 0.084,0.021 0.011,0.012 0.043,0.067 0.012,0.26 -0.278,1.76 1.694,5.401 2.342,6.598 l 0.012,0.021 c 0.216,0.4 0.513,0.807 0.835,1.146 0.368,0.388 0.758,0.676 1.126,0.831 0.307,0.129 0.655,0.267 1.023,0.412 1.697,0.672 4.022,1.592 5.813,3.104 1.53,1.291 2.621,3.083 2.848,4.676 0.109,0.767 0.1,1.538 -0.025,2.292 -0.295,1.782 -1.227,3.402 -2.622,4.561 -0.512,0.426 -1.175,0.851 -1.73,1.109 L 11.345,5.708 11.337,5.712 C 10.715,6.09 10.018,6.412 9.475,6.574 8.777,6.781 8.053,6.886 7.323,6.886 5.47,6.886 3.688,6.205 2.307,4.967 1.725,4.446 1.206,3.719 0.804,2.865 0.415,2.036 0.145,1.106 0.022,0.177 Z m 1.634,-19.631 v 0 c -0.396,0 -1.108,0.361 -2.399,1.016 -0.164,0.084 -0.337,0.171 -0.519,0.263 -0.765,0.386 -1.347,0.71 -1.78,0.991 -0.668,0.432 -0.962,0.746 -0.955,1.016 0.003,0.106 0.053,0.253 0.278,0.352 1.524,0.67 3.582,4.175 4.107,5.394 0.175,0.406 0.326,0.756 0.383,1.189 0.062,0.467 0.008,1.01 -0.17,1.708 -0.253,0.992 -0.538,2.159 -0.736,3.467 -0.237,1.575 -0.286,3.012 -0.144,4.27 v 0 c 0.007,0.06 0.014,0.12 0.022,0.18 l 0.025,0.203 h 0.004 c 0.138,0.893 0.406,1.779 0.78,2.575 0.419,0.892 0.963,1.652 1.574,2.2 1.438,1.287 3.291,1.996 5.219,1.996 0.759,0 1.512,-0.109 2.238,-0.325 0.574,-0.17 1.275,-0.494 1.927,-0.888 0.583,-0.274 1.251,-0.702 1.788,-1.148 1.451,-1.205 2.42,-2.89 2.727,-4.744 0.13,-0.785 0.139,-1.587 0.026,-2.384 -0.119,-0.839 -0.465,-1.74 -1.001,-2.608 -0.515,-0.835 -1.19,-1.615 -1.951,-2.258 -1.83,-1.544 -4.181,-2.474 -5.898,-3.153 -0.366,-0.145 -0.712,-0.282 -1.016,-0.41 -0.73,-0.308 -1.436,-1.147 -1.813,-1.842 l -0.011,-0.022 c -0.311,-0.573 -0.957,-1.766 -1.491,-3.027 -0.654,-1.542 -0.929,-2.679 -0.819,-3.378 0.038,-0.237 0.012,-0.397 -0.08,-0.505 -0.072,-0.085 -0.178,-0.128 -0.315,-0.128"
             style="fill:#656263;fill-opacity:1;fill-rule:nonzero;stroke:none"
             id="path296"
             inkscape:connector-curvature="0" />
        </g>
      </g>
      <g
         transform="translate(550.8249,28.941)"
         id="g298">
        <path
           inkscape:connector-curvature="0"
           id="path300"
           style="fill:#ef2e32;fill-opacity:1;fill-rule:nonzero;stroke:none"
           d="m 0,0 c 0.804,-0.456 4.699,-2.39 7.905,-3.361 0.672,-0.204 1.493,-0.32 1.811,-0.36 0.236,0.471 0.337,0.787 0.326,1.016 -0.01,0.222 -0.129,0.392 -0.309,0.649 -0.058,0.083 -0.124,0.177 -0.192,0.282 -0.113,0.175 -0.234,0.35 -0.351,0.52 -0.29,0.419 -0.54,0.781 -0.626,1.058 -0.133,0.434 -0.176,0.969 -0.119,1.505 0.062,0.582 0.232,1.107 0.493,1.517 0.325,0.512 0.782,0.823 1.32,0.898 0.223,0.032 0.477,0.047 0.777,0.047 0.273,0 0.56,-0.012 0.837,-0.025 0.281,-0.012 0.572,-0.024 0.853,-0.024 0.531,0 1.212,0.039 1.759,0.348 0.451,0.254 0.509,0.699 0.576,1.213 0.03,0.237 0.062,0.482 0.137,0.714 0.152,0.476 0.46,0.927 0.843,1.238 0.059,0.047 0.094,0.092 0.097,0.122 0.006,0.053 -0.073,0.15 -0.137,0.228 -0.111,0.138 -0.25,0.309 -0.2,0.523 0.047,0.204 0.259,0.22 0.386,0.229 0.178,0.013 0.19,0.03 0.195,0.052 0.002,0.043 -0.022,0.187 -0.039,0.293 -0.077,0.473 -0.119,0.823 0.039,1.007 0.06,0.072 0.146,0.111 0.241,0.111 0.009,0 0.017,0 0.026,-0.001 0.107,-0.007 0.207,-0.011 0.296,-0.011 v 0 c 0.392,0 0.637,0.072 0.749,0.22 0.119,0.157 0.12,0.442 0.005,0.847 -0.198,0.696 -0.477,1.38 -0.772,2.103 -0.378,0.927 -0.77,1.885 -0.979,2.879 -0.139,0.658 -0.189,1.333 -0.236,1.986 -0.083,1.136 -0.162,2.208 -0.671,3.195 -0.395,0.767 -0.871,1.474 -1.414,2.1 -0.435,0.502 -0.914,0.953 -1.423,1.342 -0.147,0.113 -0.288,0.213 -0.421,0.303 0.149,-0.182 0.308,-0.389 0.468,-0.621 0.41,-0.594 0.747,-1.227 1.001,-1.883 0.317,-0.82 0.505,-1.677 0.557,-2.547 0.089,-1.493 -0.224,-2.924 -0.929,-4.253 C 12.305,14.378 11.622,13.662 11.365,13.392 10.108,12.075 8.406,10.967 6.007,9.903 5.216,9.553 4.652,9.355 4.199,9.196 3.378,8.908 3.038,8.788 2.543,8.161 1.659,7.039 0.892,5.665 0.2,3.96 -0.845,1.39 -0.127,0.183 0,0 m 9.941,-4.142 -0.133,0.014 c -0.046,0.005 -1.134,0.122 -2.017,0.389 -3.287,0.997 -7.295,2.997 -8.023,3.418 l -0.031,0.017 -0.022,0.027 c -0.012,0.015 -0.296,0.363 -0.414,1.088 -0.068,0.413 -0.07,0.87 -0.005,1.358 0.079,0.603 0.26,1.255 0.538,1.94 0.707,1.739 1.492,3.144 2.4,4.296 0.565,0.717 0.989,0.866 1.835,1.163 0.446,0.156 1.002,0.351 1.778,0.695 2.35,1.042 4.013,2.123 5.233,3.401 0.247,0.259 0.903,0.947 1.451,1.979 0.671,1.265 0.968,2.626 0.883,4.046 -0.049,0.829 -0.228,1.646 -0.531,2.428 -0.242,0.626 -0.564,1.232 -0.957,1.801 -0.669,0.966 -1.312,1.49 -1.318,1.495 l -0.953,0.768 1.146,-0.43 c 0.028,-0.011 0.715,-0.273 1.627,-0.967 0.533,-0.405 1.033,-0.876 1.488,-1.398 0.567,-0.653 1.063,-1.389 1.475,-2.187 0.545,-1.059 0.63,-2.222 0.713,-3.347 0.046,-0.64 0.095,-1.302 0.228,-1.933 0.203,-0.96 0.587,-1.902 0.959,-2.812 0.286,-0.702 0.582,-1.427 0.786,-2.144 0.153,-0.538 0.13,-0.928 -0.07,-1.193 C 17.753,9.433 17.279,9.394 16.944,9.394 v 0 c -0.084,0 -0.173,0.003 -0.269,0.009 C 16.669,9.367 16.664,9.302 16.672,9.189 16.682,9.048 16.708,8.887 16.731,8.745 16.768,8.518 16.785,8.405 16.769,8.32 16.706,7.984 16.382,7.956 16.221,7.944 16.248,7.906 16.283,7.863 16.306,7.834 16.416,7.699 16.552,7.531 16.529,7.316 16.515,7.176 16.433,7.046 16.288,6.928 15.963,6.665 15.702,6.282 15.572,5.877 15.508,5.678 15.48,5.462 15.45,5.233 15.38,4.691 15.3,4.078 14.677,3.726 14.051,3.373 13.305,3.327 12.725,3.327 12.435,3.327 12.14,3.34 11.855,3.353 11.57,3.365 11.3,3.377 11.035,3.377 10.754,3.377 10.518,3.363 10.313,3.334 9.887,3.274 9.536,3.032 9.271,2.615 8.763,1.816 8.722,0.631 8.941,-0.08 c 0.068,-0.219 0.313,-0.574 0.573,-0.95 0.119,-0.172 0.242,-0.35 0.358,-0.529 0.064,-0.1 0.125,-0.187 0.184,-0.271 0.204,-0.291 0.364,-0.521 0.38,-0.857 0.016,-0.33 -0.11,-0.717 -0.433,-1.336 z" />
      </g>
    </g>
  </g>
</svg>
