<svg id="Group_4" data-name="Group 4" xmlns="http://www.w3.org/2000/svg" xmlns:xlink="http://www.w3.org/1999/xlink" width="228.267" height="64.543" viewBox="0 0 228.267 64.543">
  <defs>
    <clipPath id="clip-path">
      <rect id="Rectangle_2" data-name="Rectangle 2" width="228.267" height="64.543" fill="none"/>
    </clipPath>
  </defs>
  <g id="Group_3" data-name="Group 3" clip-path="url(#clip-path)">
    <path id="Path_325" data-name="Path 325" d="M56.151,48.148a9.471,9.471,0,0,1-7.087.824,17.1,17.1,0,0,0,1.888-5.383,36.429,36.429,0,0,0,6.048-.1c.786-.082,1.635-.187,2.5-.334a6.45,6.45,0,0,1-3.348,5M36.058,61.2c-2.785,2.654-5.378,1.051-7.305-1.607a21.265,21.265,0,0,1-1.724-2.838c1.962-1.266,3.9-2.568,5.78-3.955q.538-.4,1.069-.8c1.187,1.592,2.583,3.378,4.443,3.934a4.348,4.348,0,0,0,1.729.139,24.663,24.663,0,0,1-3.992,5.13M23.651,56.8a14.829,14.829,0,0,1-3,1.86c-3.642,1.11-3.122-4.9-2.682-6.644a28.3,28.3,0,0,1,3.446-7.6q.285.039.573.068A46.034,46.034,0,0,0,23.5,52.564a37.557,37.557,0,0,0,1.22,3.554c-.356.226-.712.454-1.069.679M7.375,44.854c-2.6.1-6.069-1.047-5.072-4.285C4.24,41.715,6.7,41.824,8.872,42q3.66.3,7.336.332a7.066,7.066,0,0,0,.7.533,35.437,35.437,0,0,1-9.535,1.987m-3.8-11.731a21.179,21.179,0,0,1,3.669-3.613,17.929,17.929,0,0,0,3.707,1.325C9.068,32.01,7.2,33.221,5.4,34.513a16.3,16.3,0,0,0-3.488,3.2c-.61-1.551.721-3.388,1.662-4.591M5.2,26c.5.471,1.021.92,1.557,1.353A8.416,8.416,0,0,1,5.2,26m.817-12.023c.421-.079.846-.142,1.271-.206a11.329,11.329,0,0,0-5.018,4.471c-.393-1.971.456-3.649,3.747-4.264M14.9,6.966c.486-2.865,2.364-5.893,5.707-5.1a12.716,12.716,0,0,1,4.729,2.659,7.974,7.974,0,0,0-1.179.514,7.17,7.17,0,0,0-3.472,5.307,33.58,33.58,0,0,0-5.813.791A13.52,13.52,0,0,1,14.9,6.966M48.644,8.794c.044.128.081.261.123.391a26.069,26.069,0,0,0-7.541-3.778q-1.016-.322-2.049-.571-.449-.268-.908-.51c4.137-.021,9.162.938,10.375,4.468m12.606,8.45c-.1-.1-.2-.207-.294-.308a22.435,22.435,0,0,0-3.258-2.9,5.5,5.5,0,0,1,3.552,3.206M48.706,41.707c-.134-.811-.3-1.612-.471-2.386.4-.223.794-.461,1.178-.707a17.944,17.944,0,0,1,0,3.16c-.235-.024-.471-.041-.7-.068m.226,1.71.241.027q-.079.406-.18.808-.021-.417-.061-.835M36.575,49.827a8.948,8.948,0,0,0,4.931,3.495c-.092.2-.189.391-.286.585a4.071,4.071,0,0,1-3.389-.2,9.272,9.272,0,0,1-2.7-2.693q.729-.584,1.444-1.188m-3.622-2.051c-.821-1.185-1.593-2.4-2.326-3.643q1.231-.141,2.473-.318c.765,1.538,1.58,3.045,2.458,4.506q-.716.612-1.452,1.2c-.418-.636-.805-1.244-1.153-1.746m-9.4-5.494.338-.137q1.747-.1,3.515-.254c.149.289.307.574.46.862a32.308,32.308,0,0,1-4.251.222c-.02-.231-.043-.461-.062-.692m-7.715-3.446a7.438,7.438,0,0,1,.41-5.841c1.507.707,3.019,1.372,4.494,2.021.267.117.536.228.8.344.019,1.717.056,3.447.144,5.176q-2.4.1-4.79.089a5.5,5.5,0,0,1-1.063-1.789m7.849-26.683c-.058.166-.111.334-.165.5q-.734-.161-1.468-.3c.007-.078.013-.157.021-.234q.806,0,1.612.03M39.931,7.508A20.753,20.753,0,0,1,45.15,12.75c-.533.23-1.06.48-1.579.738q-.55.156-1.085.306c-.979.272-1.956.564-2.933.848-.883-.461-1.78-.893-2.692-1.287q-1.655-2.1-3.515-4.032-1.531-1.594-3.188-3.061a11.028,11.028,0,0,1,1.262-.675l.651.018a32.638,32.638,0,0,1,5.924.7c.683.381,1.338.79,1.936,1.206M49.2,11.689c-.111.005-.221.009-.333.019a10.11,10.11,0,0,0-2.011.408,21.211,21.211,0,0,0-1.7-2.255,24.442,24.442,0,0,0-1.783-1.841,22.35,22.35,0,0,1,5.828,3.67m-2.86,29.68q.031-.566.045-1.131l.137-.065c.1.42.189.844.276,1.274-.153-.024-.305-.052-.458-.077M40.452,46.2a26.3,26.3,0,0,0,2.873,2.212,32.19,32.19,0,0,1-1.094,3.239,3.789,3.789,0,0,1-.769-.095,6.382,6.382,0,0,1-3.58-2.877q1.327-1.2,2.57-2.479M37.245,43.1c.611.635,1.235,1.265,1.875,1.88-.714.737-1.443,1.458-2.2,2.148-.183-.322-.359-.638-.527-.939-.489-.878-.955-1.769-1.411-2.666q1.134-.191,2.262-.423m-3.441-2q.669-.107,1.336-.226l.693.733q-.826.154-1.651.288-.19-.4-.377-.8m-9.411-4.55q-.543.772-1.078,1.555-.034-1.007-.05-2.014c.375.156.752.306,1.128.458M21.53,31.61q0,.97,0,1.934c-1.445-.618-2.9-1.256-4.341-1.934,1.463.053,2.923.041,4.341,0m-.379-9.175c.067.452.138.9.216,1.353q-.455-.545-.9-1.1c.226-.085.453-.167.679-.251m1.759-7.448c-.236,1.172-.432,2.358-.6,3.553a36.277,36.277,0,0,1-.335-4.355q.532.1,1.062.221c-.044.193-.091.385-.131.58m2.084-.106a35.911,35.911,0,0,0,.29,4.3q-.7.24-1.393.481c.188-1.607.43-3.2.762-4.764.007-.034.017-.065.024-.1l.318.083m5.4-3.665c-1.107-.255-2.228-.448-3.356-.6.087-.415.183-.827.3-1.234.095-.322.206-.645.332-.962a11.118,11.118,0,0,1,1.046-1.078,54.906,54.906,0,0,1,4.769,4.735c-1.018-.332-2.05-.622-3.095-.863m5.939,4.377c-.779.237-1.556.48-2.333.723a45.025,45.025,0,0,0-7.323-2.852q.027-.522.08-1.04a35.51,35.51,0,0,1,9.06,2.472c.176.229.344.465.516.7m20.038,4.731a20.362,20.362,0,0,0-2.085-5.076,24.048,24.048,0,0,1,4.73,5.467c-.887-.17-1.782-.293-2.646-.391m.363,1.7c.465.071.929.144,1.393.224.588.1,1.225.205,1.869.337a10.93,10.93,0,0,1-3.017,1.717,18.837,18.837,0,0,0-.245-2.278m-3.6,3.442q-1.365-1.563-2.863-3.013c-.009-.125-.022-.249-.033-.373.1-.24.19-.483.276-.729.3.019.593.034.889.057q1.786.138,3.566.367a17.156,17.156,0,0,1,.327,3.113c-.713.219-1.442.41-2.162.578m-.126,7.387q-1.254.752-2.57,1.4a23.2,23.2,0,0,0-1.078-3.079,28.358,28.358,0,0,0,.681-3.275c.771-.139,1.542-.29,2.308-.46.728.841,1.436,1.712,2.11,2.608a13.15,13.15,0,0,1-1.451,2.808M46.4,38.367q.173-.306.34-.617,1.209-.461,2.387-.98a19.047,19.047,0,0,1-2.727,1.6m-2.8,4.2q.4.083.8.16a34.279,34.279,0,0,1-.6,3.807,22.458,22.458,0,0,1-1.972-1.495c-.054-.046-.105-.095-.159-.141q1.009-1.13,1.934-2.332M30.794,38.948l.119.04c.094.228.187.458.283.685q-1.233.176-2.472.318,1.043-.506,2.07-1.044M24.27,34.7q-.511-.21-1.021-.423,0-1.269.014-2.535c.308,1,.649,1.98,1.006,2.958m-2.648-7.778q-.056,1.5-.077,3c-.89.008-1.781.005-2.672-.02l-.552-.016a18.939,18.939,0,0,1,3.3-2.96M25.8,22.37q-1.133.593-2.26,1.2.066-1.025.158-2.047.917-.319,1.838-.628c.081.493.168.986.264,1.478m14.769-5.054c-.189.166-.38.331-.567.5q-.161-.259-.326-.514l.467-.229c.142.082.286.159.426.243m10.56,1.676a20.292,20.292,0,0,0,.106-5.195c.219.267.431.54.634.822a18.417,18.417,0,0,1,2.7,5.526c-.633-.058-1.228-.108-1.762-.163-.617-.063-1.234-.112-1.852-.159.063-.274.125-.548.171-.831M50.307,25.2q.343.358.683.725c-.25.048-.5.093-.736.136.022-.287.041-.574.053-.862m-2.777,1.348c.389-.477.761-.966,1.1-1.473-.019.43-.047.859-.09,1.287-.372.065-.716.126-1.013.185m.318,1.731.434-.071c-.035.2-.075.4-.116.594-.1-.177-.211-.35-.318-.523m.607,5.709c.114.347.22.7.316,1.046q-.448.2-.9.38c.205-.471.4-.946.585-1.426m-2.319.914a39.4,39.4,0,0,0-1.1-5.7q.295-.276.582-.559l.222-.037a22.8,22.8,0,0,1,1.619,2.891A29.622,29.622,0,0,1,46.137,34.9m-2.045,3.781c-.188.3-.383.6-.58.895q-1.113.405-2.256.743-.781-.192-1.559-.4,2.228-.543,4.394-1.24m-15.521-.52c-.285.142-.573.277-.86.415-.133-.29-.258-.583-.387-.875.414.156.831.308,1.246.46m-2.537-6.753q.581.614,1.166,1.225-.612.849-1.234,1.712-.529-1.426-.989-2.875c.353-.018.7-.04,1.057-.062m18.014-11.77q-1.45.031-2.9.121-.153-.274-.31-.544.562-.515,1.14-1.008c.7.458,1.393.932,2.067,1.431m2.43-4.67a19.268,19.268,0,0,1,1.438,3.646c.1.35.181.7.259,1.051-.356-.013-.713-.015-1.069-.023q-1.742-1.418-3.609-2.662a30.224,30.224,0,0,1,2.68-1.846c.1-.062.2-.109.3-.166M29.321,34.833q.373,1.053.773,2.1-1.532-.545-3.051-1.129.667-.97,1.351-1.929.463.48.927.961m.22-5.372-.155.015q-.721-2.417-1.3-4.873c-.06-.257-.119-.516-.179-.776A45.251,45.251,0,0,1,35.762,22c-2.2,2.369-4.263,4.878-6.222,7.457m14.619-3.1c.114.135.23.269.341.406.086.105.169.215.253.322l-.324.063q-.131-.4-.27-.79M31.878,29.2q1.368-1.747,2.8-3.439c1.166-1.373,2.386-2.759,3.667-4.1.244-.027.488-.055.732-.08q.885.668,1.723,1.389a40.875,40.875,0,0,1,1.848,4.516c-3.573.668-7.164,1.272-10.77,1.711m.878,6.706q-.971-1.05-1.947-2.084-.4-1.1-.762-2.218c.143-.193.286-.386.43-.578,4.051-.437,8.079-1.1,12.085-1.838a63.061,63.061,0,0,1-7.406,5.275c-.79.5-1.593.976-2.4,1.444M23.6,26.332c-.042-.189-.082-.379-.122-.568a25.836,25.836,0,0,1,2.769-1.315c.407,1.756.885,3.491,1.389,5.186-.276.022-.553.042-.829.062-1.082-1.107-2.159-2.224-3.206-3.364M35.961,38.859l-.651-.2q-.684-.732-1.363-1.467a75.5,75.5,0,0,0,6.658-4.371c.984-.726,1.972-1.49,2.93-2.3a35.719,35.719,0,0,1,.961,6.123q-.871.286-1.746.543c-2.228.657-4.5,1.207-6.79,1.667M46.917,24.574c-.284.391-.586.771-.9,1.145A31.834,31.834,0,0,0,42.2,21.748c-.067-.135-.137-.269-.2-.4q2.022-.123,4.049-.13.976.811,1.907,1.673a13.3,13.3,0,0,1-1.037,1.688m2.74-10.8a19.088,19.088,0,0,1-.147,4.2,20.957,20.957,0,0,0-1.449-3.766,9.233,9.233,0,0,1,1.388-.4l.208-.035M38.066,18.089c.2.3.388.614.578.923q-.523-.353-1.058-.689l.48-.235M35.63,19.281q.706.415,1.39.861-1.211.15-2.417.341-1.078.172-2.163.388c.85-.427,1.7-.856,2.551-1.278.212-.105.426-.207.638-.312m-8.7-.669a31.322,31.322,0,0,1-.272-3.253,43.956,43.956,0,0,1,4.766,1.773q-2.252.727-4.494,1.481m4.457.36q1.158-.378,2.317-.753l.128.067c-.63.312-1.261.621-1.889.936q-2.27,1.138-4.528,2.3-.116-.59-.22-1.186c1.4-.46,2.8-.912,4.191-1.368m-6.73,20.41q.452-.7.913-1.39c.189.44.387.874.586,1.309q-1,.454-2.019.878.263-.4.52-.8m14.554,3.273q1.092-.267,2.168-.584l.263.064q-.644.807-1.325,1.57c-.374-.344-.74-.7-1.107-1.05M55.16,27.25c-.027.192-.064.377-.1.565q-.342-.441-.693-.876.43-.121.853-.253c-.019.188-.036.377-.062.564M19,20.719a24.875,24.875,0,0,1-3.65-7.332A45.74,45.74,0,0,1,20,13.842c.133.02.266.042.4.064.01,1.756.187,3.487.317,4.945.055.619.125,1.237.2,1.855q-.759.275-1.521.561c-.133-.182-.266-.364-.4-.548m-.151,2.6c.451.579.915,1.144,1.387,1.695.068.08.139.158.207.237q-3.261,1.806-6.459,3.724c-.291.175-.581.354-.873.531l-.05-.007c-1.053-.59-2.08-1.217-3.07-1.887a52.656,52.656,0,0,1,6.656-3.382c.729-.317,1.464-.617,2.2-.912M29.71,42.527c-.15-.273-.3-.545-.45-.82q1.342-.145,2.686-.329c.121.268.236.538.36.8-.507.072-1.012.141-1.515.2l-1.081.141m14.747,8.462c.185-.528.354-1.062.512-1.6.251.131.5.256.761.374a5.475,5.475,0,0,1-1.273,1.224m2.62-4.232a7.08,7.08,0,0,1-.417,1.387c-.409-.182-.809-.385-1.2-.6a35.334,35.334,0,0,0,.751-4.5c.3.048.593.1.89.138a11.385,11.385,0,0,1-.02,3.568m9.709-16.575c-.13-.19-.262-.378-.395-.567.078-.276.152-.555.215-.839a16.672,16.672,0,0,0,.368-2.708,15.588,15.588,0,0,0,3.86-2.17c.051-.041.1-.083.147-.124l.033.052c.185.292.361.59.541.885a21.692,21.692,0,0,1-4.77,5.471m4.775-9.994a3.845,3.845,0,0,1-.327.893,46.97,46.97,0,0,0-3.739-5.009,18.963,18.963,0,0,1,1.884,1.673,18.189,18.189,0,0,1,2.182,2.443M24.648,6.805a6.494,6.494,0,0,1,2.319-.952l.044.037a11.014,11.014,0,0,0-.805,1.633,14.549,14.549,0,0,0-1.781,2.841q-1.011-.059-2.026-.058a5.92,5.92,0,0,1,2.248-3.5M3.329,20.82a4.7,4.7,0,0,1,1.134-2.7c1.613-1.853,4.348-3.056,6.584-3.934.833-.327,1.68-.6,2.534-.85h.04a25.877,25.877,0,0,0,4.162,8.549,52.116,52.116,0,0,0-9.3,4.65A22.345,22.345,0,0,1,3.329,20.82M3.073,39.014a13.444,13.444,0,0,1,3.292-3.078c2.2-1.576,4.468-3.058,6.779-4.477q.8.423,1.616.821a9.176,9.176,0,0,0-.441,7.413,7.327,7.327,0,0,0,.441.9c-.5-.013-1.009-.027-1.512-.047A56.421,56.421,0,0,1,5.9,39.936a7.982,7.982,0,0,1-2.829-.923m23.2,16.106a36.4,36.4,0,0,1-2.363-9.4c-.049-.378-.088-.758-.131-1.137a41.5,41.5,0,0,0,4.706-.229l.253-.025A60.913,60.913,0,0,0,32.8,50.546c-1.915,1.467-3.9,2.848-5.91,4.172-.205.135-.412.267-.618.4m24.9-13.207a21.162,21.162,0,0,0-.1-4.491,16.572,16.572,0,0,0,3.151-3.316q1.065-.653,2.077-1.393a28.567,28.567,0,0,1,2.1,3.961,14.074,14.074,0,0,1,1.17,4.917,37.318,37.318,0,0,1-7.365.376c-.345-.011-.689-.035-1.034-.055M64.875,31c.869,1.99,1.787,4.4,1.081,6.566-.606,1.862-2.369,2.957-4.508,3.594A19.677,19.677,0,0,0,58.466,32.8c-.239-.4-.487-.8-.738-1.195a25.657,25.657,0,0,0,2.92-2.819,29.4,29.4,0,0,0,1.917-2.366A49.233,49.233,0,0,1,64.875,31M61.444,42.735c3.126-.819,6-2.432,6.395-5.9a12.772,12.772,0,0,0-1.368-6.4,53.78,53.78,0,0,0-2.9-5.674c.1-.206.2-.413.28-.622a3.962,3.962,0,0,1,1.3,1.89c.266.831,1.527.384,1.275-.444a5.517,5.517,0,0,0-2.2-2.926c.012-.113.024-.226.027-.338a4.7,4.7,0,0,0-1.038-2.848,7.221,7.221,0,0,0-3.735-6.293,12.623,12.623,0,0,0-7.845-1.475c-.262-.277-.53-.547-.807-.809-.016-.093-.03-.188-.046-.281-.456-2.569-1.255-4.836-3.7-6.107C43.569,2.682,38.663,2.237,34.55,2.925a9.156,9.156,0,0,0-2.915-.186A5.612,5.612,0,0,0,28.744,3.9c-.43.026-.859.066-1.282.125-.289-.226-.573-.459-.866-.68C24.592,1.827,22.29.069,19.665,0c-4.978-.128-6.725,5.466-6.594,9.552a17.182,17.182,0,0,0,.184,1.979l-.121.033c-1,.006-2.008.035-3.009.109-2.453.181-5.675.278-7.791,1.712-2.919,1.979-2.324,5.177-.808,7.951a9.384,9.384,0,0,0,4.15,7.245c-.069.056-.14.109-.207.166C2.786,30.986-1.985,36,.891,39.4c-1.985,4.466,2.213,7.246,6.27,7.184a38.555,38.555,0,0,0,12.081-2.639c.112.035.225.068.338.1a44.683,44.683,0,0,0-2.5,5.143c-1.24,3.076-2.447,8.937,1.1,11.146,1.88,1.171,3.817-.4,5.385-1.381q.943-.587,1.881-1.182c1.481,3.1,3.639,6.017,6.651,6.664,4.715,1.012,8.47-5.393,10.316-8.808.07-.128.134-.259.2-.388A15.107,15.107,0,0,0,44.3,54.213,15.621,15.621,0,0,0,48.019,50.6c.318.087.639.166.967.23,4.5.877,9.79-.673,11.744-5.151a9.05,9.05,0,0,0,.714-2.943" transform="translate(0 0)" fill="#e1231b"/>
    <path id="Path_326" data-name="Path 326" d="M376.687,87.1h.787q2.288,0,2.289-2.4V77.587h10.014V84.7q0,2.4,2.217,2.4h.751a2.087,2.087,0,0,0,2.325-2.4V66.071a2.087,2.087,0,0,0-2.325-2.4h-.751q-2.218,0-2.217,2.4v7.045H379.762V66.071q0-2.4-2.289-2.4h-.787q-2.218,0-2.217,2.4V84.7q0,2.4,2.217,2.4m-10.06-.268a10.024,10.024,0,0,0,2.861-1.448,6.275,6.275,0,0,0,1.681-1.824,3.55,3.55,0,0,0,.554-1.717,2.075,2.075,0,0,0-.483-1.413,3.632,3.632,0,0,0-1.073-.858,4,4,0,0,0-1.073-.394c-.322-.059-.5-.065-.518-.018a5.333,5.333,0,0,1-2.2,2.575,7.186,7.186,0,0,1-6.259.393,6.457,6.457,0,0,1-2.146-1.5,6.75,6.75,0,0,1-1.413-2.306,8.942,8.942,0,0,1,0-5.9,6.9,6.9,0,0,1,1.395-2.307,6.066,6.066,0,0,1,2.128-1.484,7.08,7.08,0,0,1,5.972.3,5.954,5.954,0,0,1,2.378,2.324c.024.049.2.042.519-.018a3.5,3.5,0,0,0,1.037-.394,3.577,3.577,0,0,0,1.019-.858,2.125,2.125,0,0,0,.465-1.413,3.206,3.206,0,0,0-.536-1.609,6.022,6.022,0,0,0-1.627-1.7,9.878,9.878,0,0,0-2.771-1.359,13.971,13.971,0,0,0-8.816.34,10.932,10.932,0,0,0-6.223,6.294,13.938,13.938,0,0,0,0,9.727,11.328,11.328,0,0,0,2.432,3.809,10.729,10.729,0,0,0,3.755,2.468,14.124,14.124,0,0,0,8.941.286m-31.757.126h13.089q2.432,0,2.432-2.289v-.215q0-2.074-2.432-2.074h-10.55V77.337h7.582q2.432,0,2.432-2.146v-.143a1.96,1.96,0,0,0-.572-1.5,2.667,2.667,0,0,0-1.86-.536h-7.582V68.432H347.78q2.432,0,2.432-2.218v-.179a2.2,2.2,0,0,0-.59-1.627,2.511,2.511,0,0,0-1.842-.59H334.87a2.659,2.659,0,0,0-2.02.769,3.01,3.01,0,0,0-.733,2.164V84.06a2.943,2.943,0,0,0,.733,2.146,2.692,2.692,0,0,0,2.02.751M317.254,68.432V84.7q0,2.4,2.182,2.4h.751a2.087,2.087,0,0,0,2.325-2.4V68.432H327.7q2.432,0,2.432-2.289V66q0-2.181-2.432-2.181H312q-2.433,0-2.432,2.181v.143q0,2.289,2.432,2.289ZM306.268,81.055l1.395,3.648a3.881,3.881,0,0,0,1.359,1.967,3.046,3.046,0,0,0,1.681.537,3.307,3.307,0,0,0,1.144-.2,4.683,4.683,0,0,0,.948-.465,2.433,2.433,0,0,0,.626-.555c.143-.19.19-.333.143-.429l-8.082-20.385a2.057,2.057,0,0,0-.322-.644,1.909,1.909,0,0,0-.59-.5,3.083,3.083,0,0,0-.983-.322,8.88,8.88,0,0,0-1.5-.107,5.225,5.225,0,0,0-2.5.429,1.982,1.982,0,0,0-.93,1.145l-7.9,20.421q-.071.179.143.447a2.761,2.761,0,0,0,.608.537,3.751,3.751,0,0,0,.93.447,3.378,3.378,0,0,0,1.073.179,2.829,2.829,0,0,0,1.609-.537,3.8,3.8,0,0,0,1.287-1.9l1.431-3.72Zm-7.439-3.934,3.183-8.44,1.573,4.22q.286.787.572,1.556t.518,1.359q.232.589.483,1.305Zm-23.052,9.835h11.194q2.432,0,2.432-2.289v-.143q0-2.217-2.432-2.217h-8.654V66.071a2.087,2.087,0,0,0-2.325-2.4h-.751q-2.218,0-2.217,2.4V84.06a2.944,2.944,0,0,0,.733,2.146,2.693,2.693,0,0,0,2.021.751m-9.137.143h.715a2.087,2.087,0,0,0,2.325-2.4V66.071a2.087,2.087,0,0,0-2.325-2.4h-.715q-2.253,0-2.253,2.4V84.7q0,2.4,2.253,2.4m-19.33,0h.823q2.324,0,2.324-2.432V78.374h6.688q2.432,0,2.432-2.146V76.12q0-2.039-2.432-2.039h-6.867V68.324h9.513q2.431,0,2.432-2.181v-.215q0-2.11-2.432-2.11H247.847a2.659,2.659,0,0,0-2.02.769,3.01,3.01,0,0,0-.733,2.164V84.167a3.565,3.565,0,0,0,.572,2.164,1.925,1.925,0,0,0,1.645.769" transform="translate(-166.802 -43.116)" fill="#231f20"/>
  </g>
</svg>
