<?xml version="1.0" encoding="UTF-8"?><svg id="Layer_1" xmlns="http://www.w3.org/2000/svg" viewBox="0 0 535 100"><defs><style>.cls-1{fill:#0389b6;}.cls-2{fill:#58595b;}</style></defs><g><path class="cls-2" d="m146.93,82.49c-1.62,0-3.33-.11-5.13-.31-1.8-.21-3.54-.5-5.22-.85-1.68-.36-3.21-.75-4.59-1.17-1.38-.42-2.46-.81-3.24-1.17l2.61-11.16c1.56.66,3.55,1.37,5.98,2.11,2.43.75,5.45,1.12,9.05,1.12,4.14,0,7.17-.78,9.09-2.34,1.92-1.56,2.88-3.66,2.88-6.3,0-1.62-.35-2.98-1.04-4.09-.69-1.11-1.64-2.01-2.83-2.7-1.2-.69-2.63-1.17-4.28-1.44-1.65-.27-3.41-.4-5.26-.4h-5.22v-10.8h5.94c1.32,0,2.59-.12,3.83-.36,1.23-.24,2.32-.64,3.29-1.21.96-.57,1.72-1.35,2.29-2.34.57-.99.85-2.23.85-3.73,0-1.14-.24-2.13-.72-2.97-.48-.84-1.1-1.53-1.84-2.07-.75-.54-1.62-.94-2.61-1.21-.99-.27-2-.41-3.01-.41-2.58,0-4.97.39-7.16,1.17-2.19.78-4.18,1.74-5.98,2.88l-4.77-9.81c.96-.6,2.08-1.23,3.38-1.89,1.29-.66,2.71-1.26,4.28-1.8,1.56-.54,3.22-.99,5-1.35,1.77-.36,3.64-.54,5.62-.54,3.66,0,6.82.43,9.49,1.3s4.87,2.1,6.62,3.68c1.74,1.59,3.03,3.45,3.87,5.57.84,2.13,1.26,4.45,1.26,6.96s-.69,4.84-2.07,7.15c-1.38,2.31-3.24,4.06-5.58,5.26,3.24,1.32,5.74,3.29,7.51,5.9,1.77,2.61,2.66,5.75,2.66,9.42,0,2.88-.48,5.54-1.44,7.98-.96,2.43-2.46,4.54-4.5,6.31-2.04,1.77-4.63,3.15-7.79,4.15-3.15.99-6.88,1.49-11.21,1.49Z"/><path class="cls-2" d="m239.36,49.91c0,5.4-.84,10.11-2.52,14.13-1.68,4.02-4.07,7.35-7.15,9.99-3.09,2.64-6.86,4.62-11.29,5.94-4.44,1.32-9.42,1.98-14.94,1.98-2.52,0-5.46-.11-8.82-.31-3.36-.21-6.66-.64-9.9-1.31V19.58c3.24-.6,6.62-1,10.13-1.21,3.51-.21,6.52-.31,9.04-.31,5.34,0,10.18.6,14.54,1.8,4.35,1.2,8.08,3.09,11.21,5.67,3.12,2.58,5.52,5.88,7.2,9.9,1.68,4.02,2.52,8.85,2.52,14.49Zm-40.59,19.8c.66.06,1.42.11,2.29.14.87.03,1.9.04,3.1.04,7.02,0,12.22-1.77,15.62-5.31,3.39-3.54,5.08-8.43,5.08-14.67s-1.62-11.49-4.86-14.85c-3.24-3.36-8.37-5.04-15.39-5.04-.96,0-1.95.02-2.97.04-1.02.03-1.98.11-2.88.23v39.42Z"/><path class="cls-2" d="m247.9,48.2h26.1v12.15h-26.1v-12.15Z"/><path class="cls-2" d="m326.56,57.47c0,3.78-.55,7.2-1.67,10.26-1.11,3.06-2.71,5.67-4.81,7.83-2.1,2.16-4.68,3.83-7.74,5-3.06,1.17-6.54,1.75-10.44,1.75-1.62,0-3.32-.08-5.08-.23-1.77-.15-3.51-.35-5.22-.58-1.71-.24-3.34-.52-4.9-.85-1.56-.33-2.94-.67-4.14-1.03V13.46l13.41-2.16v23.58c1.5-.66,3.06-1.17,4.68-1.53s3.36-.54,5.22-.54c3.36,0,6.33.58,8.91,1.75,2.58,1.17,4.74,2.83,6.48,5,1.74,2.16,3.06,4.76,3.96,7.79.9,3.03,1.35,6.41,1.35,10.12Zm-13.68-.36c0-8.64-3.18-12.96-9.54-12.96-1.38,0-2.75.18-4.09.54-1.35.36-2.45.81-3.29,1.35v24.39c.66.12,1.5.23,2.52.31,1.02.09,2.13.14,3.33.14,3.66,0,6.42-1.26,8.28-3.78,1.86-2.52,2.79-5.85,2.79-9.99Z"/><path class="cls-2" d="m353.92,32.54c3.96,0,7.26.45,9.9,1.35,2.64.9,4.75,2.19,6.34,3.87,1.59,1.68,2.71,3.72,3.38,6.12.66,2.4.99,5.07.99,8.01v27.9c-1.92.42-4.59.92-8.01,1.48-3.42.57-7.56.86-12.42.86-3.06,0-5.84-.27-8.33-.81-2.49-.54-4.63-1.42-6.43-2.66-1.8-1.23-3.18-2.83-4.14-4.81-.96-1.98-1.44-4.41-1.44-7.29s.55-5.1,1.67-7.02c1.11-1.92,2.59-3.45,4.45-4.59,1.86-1.14,3.99-1.96,6.39-2.48,2.4-.51,4.89-.77,7.47-.77,1.74,0,3.29.08,4.63.23,1.35.15,2.44.35,3.29.58v-1.26c0-2.28-.69-4.11-2.07-5.49-1.38-1.38-3.78-2.07-7.2-2.07-2.28,0-4.53.17-6.75.5-2.22.33-4.14.8-5.76,1.4l-1.71-10.8c.78-.24,1.76-.5,2.93-.77,1.17-.27,2.44-.51,3.82-.72,1.38-.21,2.83-.39,4.37-.54,1.53-.15,3.07-.23,4.63-.23Zm1.08,39.24c1.32,0,2.58-.03,3.78-.09,1.2-.06,2.16-.15,2.88-.27v-10.17c-.54-.12-1.35-.24-2.43-.36-1.08-.12-2.07-.18-2.97-.18-1.26,0-2.45.08-3.56.23-1.11.15-2.08.44-2.92.85-.84.42-1.5.99-1.98,1.71-.48.72-.72,1.62-.72,2.7,0,2.1.71,3.56,2.12,4.36,1.41.81,3.34,1.22,5.8,1.22Z"/><path class="cls-2" d="m400.27,71.51c2.46,0,4.2-.24,5.22-.72,1.02-.48,1.53-1.41,1.53-2.79,0-1.08-.66-2.02-1.98-2.83-1.32-.81-3.33-1.72-6.03-2.75-2.1-.78-4-1.59-5.71-2.43-1.71-.84-3.17-1.85-4.37-3.02-1.2-1.17-2.13-2.56-2.79-4.19-.66-1.62-.99-3.57-.99-5.85,0-4.44,1.65-7.95,4.95-10.53,3.3-2.58,7.83-3.87,13.59-3.87,2.88,0,5.64.26,8.28.77,2.64.51,4.74,1.07,6.3,1.67l-2.34,10.44c-1.56-.54-3.25-1.02-5.08-1.44-1.83-.42-3.89-.63-6.17-.63-4.2,0-6.3,1.17-6.3,3.51,0,.54.09,1.02.27,1.44.18.42.54.83,1.08,1.22.54.39,1.27.81,2.21,1.27.93.45,2.12.95,3.56,1.5,2.94,1.09,5.37,2.16,7.29,3.22,1.92,1.06,3.43,2.2,4.54,3.43,1.11,1.23,1.89,2.59,2.34,4.09.45,1.5.67,3.23.67,5.21,0,4.67-1.75,8.2-5.26,10.6-3.51,2.39-8.48,3.59-14.9,3.59-4.2,0-7.69-.36-10.48-1.08-2.79-.72-4.73-1.32-5.81-1.8l2.25-10.89c2.28.9,4.62,1.61,7.02,2.11,2.4.51,4.77.77,7.11.77Z"/><path class="cls-2" d="m445,20.12c0,2.46-.8,4.4-2.38,5.81-1.59,1.41-3.46,2.11-5.62,2.11s-4.04-.7-5.62-2.11c-1.59-1.41-2.38-3.34-2.38-5.81s.79-4.39,2.38-5.81c1.59-1.41,3.46-2.11,5.62-2.11s4.03.71,5.62,2.11c1.59,1.41,2.38,3.35,2.38,5.81Zm-1.26,61.02h-13.41v-47.34h13.41v47.34Z"/><path class="cls-2" d="m454.09,57.47c0-3.42.55-6.64,1.67-9.68,1.11-3.03,2.71-5.67,4.82-7.92,2.1-2.25,4.65-4.03,7.65-5.35,3-1.32,6.42-1.98,10.26-1.98,2.52,0,4.83.23,6.93.68,2.1.45,4.14,1.1,6.12,1.93l-2.79,10.71c-1.26-.48-2.64-.9-4.14-1.26-1.5-.36-3.18-.54-5.04-.54-3.96,0-6.92,1.23-8.86,3.69-1.95,2.46-2.92,5.7-2.92,9.72,0,4.26.91,7.56,2.74,9.9s5.03,3.51,9.58,3.51c1.62,0,3.36-.15,5.22-.45,1.86-.3,3.57-.78,5.13-1.44l1.89,10.98c-1.56.66-3.51,1.23-5.85,1.71-2.34.48-4.92.72-7.74.72-4.32,0-8.04-.65-11.16-1.93-3.12-1.29-5.69-3.04-7.69-5.27-2.01-2.22-3.48-4.84-4.41-7.88-.93-3.03-1.4-6.31-1.4-9.85Z"/><path class="cls-2" d="m514.93,71.51c2.46,0,4.2-.24,5.22-.72,1.02-.48,1.53-1.41,1.53-2.79,0-1.08-.66-2.02-1.98-2.83-1.32-.81-3.33-1.72-6.03-2.75-2.1-.78-4-1.59-5.71-2.43-1.71-.84-3.17-1.85-4.37-3.02-1.2-1.17-2.13-2.56-2.79-4.19-.66-1.62-.99-3.57-.99-5.85,0-4.44,1.65-7.95,4.95-10.53,3.3-2.58,7.83-3.87,13.59-3.87,2.88,0,5.64.26,8.28.77,2.64.51,4.74,1.07,6.3,1.67l-2.34,10.44c-1.56-.54-3.25-1.02-5.08-1.44-1.83-.42-3.89-.63-6.17-.63-4.2,0-6.3,1.17-6.3,3.51,0,.54.09,1.02.27,1.44.18.42.54.83,1.08,1.22.54.39,1.27.81,2.21,1.27.93.45,2.12.95,3.56,1.5,2.94,1.09,5.37,2.16,7.29,3.22,1.92,1.06,3.43,2.2,4.54,3.43,1.11,1.23,1.89,2.59,2.34,4.09.45,1.5.67,3.23.67,5.21,0,4.67-1.75,8.2-5.26,10.6-3.51,2.39-8.48,3.59-14.9,3.59-4.2,0-7.69-.36-10.48-1.08-2.79-.72-4.73-1.32-5.81-1.8l2.25-10.89c2.28.9,4.62,1.61,7.02,2.11,2.4.51,4.77.77,7.11.77Z"/></g><g><polygon class="cls-2" points="19.86 20 40 20 40 0 0 0 0 40 19.86 40 19.86 20"/><polygon class="cls-2" points="19.86 80 19.86 60 0 60 0 100 40 100 40 80 19.86 80"/><polygon class="cls-2" points="80.14 60 80.14 80 60 80 60 100 100 100 100 60 80.14 60"/><polygon class="cls-1" points="60 0 60 20 80.14 20 80.14 40 100 40 100 0 60 0"/></g></svg>