<svg xmlns="http://www.w3.org/2000/svg" viewBox="0 -530.4599999999999 1239.86 1239.86" data-sanitized-data-name="图层 1" data-name="图层 1" id="_图层_1" width="400" height="400">
  <defs>
    <style>
      .cls-1 {
        fill: #0455a5;
      }

      .cls-1, .cls-2, .cls-3, .cls-4 {
        stroke-width: 0px;
      }

      .cls-2 {
        fill: #ff6997;
      }

      .cls-3 {
        fill: #cada2f;
      }

      .cls-4 {
        fill: #09d8ce;
      }
    </style>
  </defs>
  <polygon points="46.52 102.74 147.11 102.74 181.87 102.74 208.66 102.74 208.66 74.98 46.52 74.98 46.52 102.74" class="cls-3"/>
  <polygon points="139.81 64.72 178.7 64.72 208.66 64.72 208.66 36.95 139.81 36.95 139.81 64.72" class="cls-4"/>
  <polygon points="139.81 140.65 178.7 140.65 208.66 140.65 208.66 112.9 139.81 112.9 139.81 140.65" class="cls-2"/>
  <rect height="27.76" width="27.76" y="112.9" x="718.88" class="cls-1"/>
  <rect height="27.76" width="27.76" x="858.19" class="cls-1"/>
  <rect height="27.76" width="27.76" y="151.18" x="1072.25" class="cls-1"/>
  <path d="m979.14,0c-25.86,0-49.07,10.75-65.12,27.76h130.25c-16.05-17.01-39.27-27.76-65.12-27.76Z" class="cls-1"/>
  <path d="m979.14,178.94c25.86,0,49.07-10.75,65.12-27.75h-130.25c16.05,17,39.27,27.75,65.12,27.75Z" class="cls-1"/>
  <polygon points="1239.78 37.68 1212.02 37.68 1212.02 65.44 1239.78 65.44 1239.78 37.68 1239.78 37.68 1239.78 37.68" class="cls-1"/>
  <polygon points="1212.11 151.18 1212.11 178.94 1239.86 178.94 1239.86 151.18 1239.86 151.18 1239.86 151.18 1212.11 151.18" class="cls-1"/>
  <path d="m862.23,178.94h-121.06c-13-1.78-23.03-12.9-23.03-26.39,0-.59.05-1.16.09-1.74h166.95c.04.58.09,1.15.09,1.74,0,13.49-10.03,24.61-23.03,26.39Z" class="cls-1"/>
  <path d="m1215.87,0h-121.06c-13,1.78-23.03,12.9-23.03,26.39,0,.59.05,1.16.09,1.74h166.95c.04-.58.09-1.15.09-1.74,0-13.49-10.03-24.61-23.03-26.39Z" class="cls-1"/>
  <path d="m1213.17,112.9c-.35,0-.69.04-1.04.05v27.7h27.67c0-.29.04-.58.04-.88,0-14.85-11.94-26.88-26.67-26.88Z" class="cls-1"/>
  <path d="m145.72,0H23.03C10.03,1.78,0,12.9,0,26.39c0,.59.05,1.16.09,1.74h168.57c.04-.58.09-1.15.09-1.74,0-13.49-10.03-24.61-23.03-26.39Z" class="cls-1"/>
  <path d="m145.72,178.94H23.03c-13-1.78-23.03-12.9-23.03-26.39,0-.59.05-1.16.09-1.74h168.57c.04.58.09,1.15.09,1.74,0,13.49-10.03,24.61-23.03,26.39Z" class="cls-1"/>
  <path d="m620.09,0c-25.63,0-48.64,10.75-64.55,27.76h129.22c-15.92-17.03-39.01-27.76-64.67-27.76Z" class="cls-1"/>
  <path d="m620.09,178.94c25.66,0,48.74-10.73,64.67-27.75h-129.22c15.91,17,38.92,27.75,64.55,27.75Z" class="cls-1"/>
  <polygon points="320.3 65.44 356.85 65.44 385.02 65.44 385.02 37.68 320.3 37.68 320.3 65.44" class="cls-1"/>
  <polygon points="320.3 140.65 356.85 140.65 385.02 140.65 385.02 112.9 320.3 112.9 320.3 140.65" class="cls-1"/>
  <rect height="27.76" width="27.76" x="357.36" class="cls-1"/>
  <rect height="27.76" width="27.76" y="151.18" x="357.36" class="cls-1"/>
  <rect height="27.76" width="27.76" x="497.75" class="cls-1"/>
  <rect height="27.76" width="27.76" y="151.18" x="497.75" class="cls-1"/>
  <path d="m325.44,0h-145.64v28.13h168.58c.04-.58.09-1.15.09-1.74,0-13.49-10.03-24.61-23.03-26.39Z" class="cls-1"/>
  <path d="m325.44,178.94h-145.64v-28.13h168.58c.04.58.09,1.15.09,1.74,0,13.49-10.03,24.61-23.03,26.39Z" class="cls-1"/>
  <polygon points="1211.13 106.27 1211.14 106.27 1211.13 106.27 1211.13 106.27" class="cls-1"/>
  <path d="m946.57,37.68h-88.38v27.76h41.48s23.22,0,23.22,0c4.89-11.49,13.24-21.14,23.68-27.76Z" class="cls-1"/>
  <path d="m919.78,74.98h-61.6v27.76h40.02s21.36,0,21.36,0c-.98-4.34-1.54-8.83-1.54-13.45,0-4.93.65-9.71,1.76-14.31Z" class="cls-1"/>
  <path d="m922.83,112.9h-64.64v27.76h54.49s0,0,0,0h33.45c-10.3-6.67-18.5-16.32-23.3-27.76Z" class="cls-1"/>
  <path d="m1035.6,112.9c-4.81,11.44-13.02,21.09-23.33,27.76h35.77s24.01,0,24.01,0h27.97v-27.76h-64.41Z" class="cls-1"/>
  <path d="m1239.36,74.98h-12.85,0s-17.23,0-17.23,0h-170.7c1.12,4.62,1.78,9.42,1.78,14.39,0,4.6-.56,9.06-1.53,13.37h177.59c13-1.75,23.03-12.73,23.03-26.04,0-.58-.05-1.14-.09-1.71Z" class="cls-1"/>
  <path d="m1011.79,37.68c10.42,6.62,18.73,16.28,23.62,27.76h25.63,0s11,0,11,0h27.97v-27.76h-88.22Z" class="cls-1"/>
  <path d="m587.11,37.68h-89.91v27.76h37.57s28.66,0,28.66,0c4.89-11.49,13.24-21.14,23.68-27.76Z" class="cls-1"/>
  <path d="m560.33,74.98h-239.48v27.76h217s22.26,0,22.26,0c-.98-4.34-1.54-8.83-1.54-13.45,0-4.93.65-9.71,1.76-14.31Z" class="cls-1"/>
  <path d="m563.37,112.9h-65.62v27.76h50.03s38.89,0,38.89,0c-10.3-6.67-18.5-16.32-23.3-27.76Z" class="cls-1"/>
  <path d="m701.9,102.94h-22.26c.98-4.34,1.54-8.83,1.54-13.45,0-4.93-.65-9.71-1.76-14.31h28.14c.76,4.65,1.21,9.4,1.21,14.25,0,4.59-.35,9.1-1.03,13.51h-5.84Z" class="cls-1"/>
  <path d="m704.98,65.44h0s-28.66,0-28.66,0c-4.89-11.49-13.24-21.14-23.68-27.76h39.53c5.96,8.3,10.51,17.67,13.33,27.76h-.52Z" class="cls-1"/>
  <path d="m691.97,140.86h-38.89c10.3-6.67,18.5-16.32,23.3-27.76h29.11c-2.8,10.09-7.32,19.45-13.25,27.76h-.27Z" class="cls-1"/>
</svg>