<?xml version="1.0" encoding="UTF-8"?>
<svg id="a" data-name="Artwork" xmlns="http://www.w3.org/2000/svg" viewBox="0 0 2000 345">
  <defs>
    <style>
      .e, .f {
        stroke-width: 0px;
      }

      .f {
        fill: #ff4040;
      }
    </style>
  </defs>
  <g id="b" data-name="POS">
    <g id="c" data-name="Verbatim - black">
      <g>
        <rect class="e" x="1636.58" y="86.66" width="42.83" height="200.98"/>
        <circle class="e" cx="1658.07" cy="42.25" r="24.78"/>
        <path class="e" d="M905.16,185.5v102.14h42.83v-102.14c0-34.57,28.03-62.6,62.6-62.6v-42.83c-58.23,0-105.43,47.2-105.43,105.43Z"/>
        <path class="e" d="M1373.01,80.07c-58.23,0-105.43,47.2-105.43,105.43s47.2,105.43,105.43,105.43c23.44,0,45.09-7.65,62.6-20.59v17.3h42.83v-102.46h0c-.18-58.08-47.31-105.1-105.43-105.1ZM1373.01,248.1c-34.57,0-62.6-28.03-62.6-62.6s28.03-62.6,62.6-62.6,62.6,28.03,62.6,62.6-28.03,62.6-62.6,62.6Z"/>
        <path class="e" d="M1547.63,27.49h-13.18c-16.38,0-29.65,13.28-29.65,29.65v125.07c0,58.23,47.2,105.43,105.43,105.43v-42.83c-34.57,0-62.6-28.03-62.6-62.6v-52.71h62.6v-42.83h-62.6V27.49Z"/>
        <path class="e" d="M1999,163.76c-.18-46.25-37.72-83.69-84.01-83.69-24.87,0-47.22,10.81-62.6,27.99-15.38-17.18-37.73-27.99-62.6-27.99-46.29,0-83.83,37.44-84.01,83.69h0v123.88h42.83v-123.55c0-22.75,18.44-41.18,41.18-41.18s41.18,18.44,41.18,41.18v123.55h42.83v-123.55c0-22.75,18.44-41.18,41.18-41.18s41.18,18.44,41.18,41.18v123.55h42.83v-123.88h0Z"/>
        <path class="e" d="M1142.35,80.07c-23.43,0-45.07,7.66-62.57,20.59V27.49h-13.18c-16.38,0-29.65,13.28-29.65,29.65v127.49c0,58.37,47.76,106.68,106.13,106.3,58.27-.38,105.32-48.03,104.72-106.52-.58-57.61-47.83-104.35-105.45-104.34ZM1142.38,248.1c-34.57,0-62.6-28.03-62.6-62.6s28.03-62.6,62.6-62.6,62.6,28.03,62.6,62.6-28.03,62.6-62.6,62.6Z"/>
      </g>
      <path class="e" d="M883.24,206.92c1.43-6.92,2.18-14.08,2.18-21.42s-.75-14.5-2.18-21.42c-9.9-47.96-52.38-84.01-103.28-84.01s-93.34,36.06-103.23,84.01c-.05.27-.1.53-.16.8-1.32,6.67-2.02,13.56-2.02,20.62s.75,14.5,2.18,21.42c9.89,47.96,52.32,84.01,103.23,84.01,37.55,0,70.52-19.63,89.2-49.18l-40.97-16.35c-11.48,13.86-28.83,22.7-48.23,22.7-27.05,0-50.09-17.16-58.84-41.18h162.12ZM721.13,164.09c.07-.19.14-.37.21-.55.19-.51.38-1.02.59-1.52.04-.11.09-.21.13-.32.03-.07.06-.14.09-.22,0,0,0,0,0,0,.12-.28.24-.56.36-.84.17-.39.34-.78.51-1.17.27-.6.55-1.19.84-1.78h0c.05-.1.1-.2.14-.29.12-.25.26-.49.39-.73.16-.31.32-.62.48-.92,0,0,0,0,0,0,.05-.09.09-.18.14-.27.03-.05.06-.11.09-.16.33-.6.68-1.2,1.03-1.79.04-.07.09-.15.13-.22.04-.06.07-.12.11-.17,0,0,0,0,0,0,.34-.56.68-1.11,1.04-1.66.05-.08.11-.17.17-.25.37-.56.75-1.12,1.14-1.67,0,0,0,0,0,0,0,0,0,0,0,0,.01-.02.02-.03.03-.05.02-.03.04-.06.06-.09.41-.58.83-1.15,1.26-1.72,0,0,0-.01.01-.02,0,0,0,0,0,0,0,0,0,0,0,0,.07-.1.15-.19.22-.28.88-1.14,1.79-2.25,2.74-3.32.08-.09.16-.18.25-.28.47-.53.95-1.05,1.44-1.56,0,0,0,0,0-.01,0,0,0,0,0,0,.04-.04.08-.08.11-.12.47-.49.94-.96,1.43-1.43.02-.02.05-.05.07-.07.03-.03.06-.06.09-.09,0,0,0,0,0,0,.02-.02.05-.04.07-.07.5-.48,1.01-.95,1.52-1.42,0,0,.02-.02.03-.02,0,0,0,0,0,0h0c.08-.07.16-.14.24-.21.49-.44.99-.87,1.5-1.29.06-.05.12-.1.18-.15,0,0,0,0,0,0,.27-.23.55-.44.83-.66.27-.22.54-.44.82-.66.02-.02.04-.03.07-.05,0,0,0,0,.01,0,0,0,0,0,0,0,.08-.06.16-.12.24-.18.56-.43,1.13-.85,1.71-1.26,0,0,0,0,0,0,.32-.23.66-.45.98-.67.26-.18.51-.36.77-.53,0,0,0,0,0,0,0,0,0,0,0,0,.12-.08.24-.16.36-.23h0s.04-.03.06-.04c.57-.37,1.15-.74,1.73-1.09.05-.03.09-.05.14-.08.56-.34,1.13-.67,1.7-.99,0,0,.02,0,.02-.01,0,0,0,0,0,0h0c.12-.07.24-.13.36-.2.61-.34,1.23-.66,1.85-.98.1-.05.21-.1.31-.15.57-.28,1.14-.56,1.72-.83.01,0,.03-.01.04-.02,0,0,0,0,0,0,0,0,0,0,.01,0,.09-.04.17-.08.26-.12.64-.29,1.28-.57,1.92-.84.13-.06.27-.11.4-.17,0,0,0,0,0,0,.61-.25,1.22-.49,1.84-.72,0,0,0,0,0,0,0,0,0,0,0,0,.01,0,.03-.01.04-.02.02,0,.04-.01.05-.02,0,0,0,0,0,0,.02,0,.05-.02.07-.03.66-.24,1.33-.47,2.01-.7.15-.05.3-.1.45-.15.67-.22,1.35-.42,2.03-.62,0,0,.01,0,.02,0,0,0,0,0,0,0h0s.08-.02.11-.03h0c.05-.02.11-.03.16-.04.6-.17,1.21-.33,1.82-.48.03,0,.06-.01.09-.02,0,0,0,0,0,0,.1-.02.2-.05.3-.07,0,0,0,0,0,0,.02,0,.05-.01.07-.02.65-.15,1.3-.3,1.95-.43.04,0,.09-.02.13-.03h0c.11-.02.22-.04.34-.06.59-.12,1.18-.22,1.78-.32.04,0,.08-.01.11-.02,0,0,0,0,0,0,.14-.02.28-.05.42-.07.7-.11,1.41-.21,2.13-.3.15-.02.3-.03.45-.05.12-.01.23-.02.35-.03.54-.06,1.08-.12,1.62-.16h0c.1,0,.2-.02.29-.03.14-.01.28-.01.42-.02h0c.48-.03.95-.06,1.43-.09h0c.11,0,.22-.01.33-.02.12,0,.24,0,.35-.01,0,0,0,0,0,0,.04,0,.07,0,.11,0,.01,0,.03,0,.04,0,.75-.03,1.5-.04,2.25-.04h0c.09,0,.19,0,.28,0,.66,0,1.31.02,1.97.04.01,0,.03,0,.04,0,.04,0,.07,0,.11,0,0,0,0,0,0,0,.12,0,.24,0,.36.01.73.03,1.46.07,2.19.13.1,0,.2.02.29.03.66.05,1.32.12,1.97.2.15.02.3.03.45.05.71.09,1.42.19,2.13.3.14.02.28.05.42.07,0,0,0,0,0,0,.08.01.16.03.24.04.56.09,1.11.19,1.66.3.02,0,.04,0,.05.01,0,0,0,0,0,0,.09.02.19.04.28.05,0,0,0,0,0,0,.02,0,.05.01.07.02.67.14,1.35.28,2.01.44.02,0,.05.01.07.02,0,0,0,0,0,0,.1.02.2.05.3.07,0,0,0,0,0,0,.03,0,.06.01.08.02.61.15,1.21.31,1.82.48.06.02.11.03.17.04h0s.08.02.11.03c.69.2,1.37.41,2.05.62.06.02.12.04.18.06,0,0,0,0,0,0,.05.02.11.04.16.05.04.01.07.02.11.03,0,0,0,0,0,0,0,0,0,0,0,0,0,0,.01,0,.02,0,.67.22,1.33.45,1.98.69.03.01.06.02.09.04,0,0,0,0,0,0,.01,0,.03.01.04.02.01,0,.02,0,.03.01.07.03.14.06.21.08.55.21,1.1.42,1.64.64,0,0,0,0,0,0,.13.06.27.11.4.17.65.27,1.29.55,1.92.84.1.05.21.1.31.15,0,0,0,0,0,0,.01,0,.02.01.03.02.57.26,1.13.53,1.68.81.1.05.21.1.31.15.62.32,1.24.64,1.85.98.12.07.24.13.36.2,0,0,0,0,0,0h0s.02.02.03.02c.57.32,1.13.64,1.69.98.05.03.09.05.14.08.58.35,1.16.72,1.73,1.09.02.01.04.02.06.04h0c.12.08.24.16.36.24,0,0,0,0,0,0,0,0,0,0,0,0,.08.06.17.12.25.17.51.34,1.01.68,1.51,1.03,0,0,0,0,.01,0h0c.38.27.75.55,1.12.83.19.15.39.29.59.43.11.08.21.16.31.24.56.43,1.11.87,1.65,1.32.06.05.12.1.18.15,0,0,0,0,0,0,.23.19.45.39.67.58.27.24.55.47.82.71.08.07.16.14.24.21h0s0,0,0,0c0,0,0,0,.01.01.52.47,1.03.94,1.54,1.43.08.08.16.15.24.23,0,0,0,0,0,0,0,0,0,0,0,0,0,0,0,0,0,0,.48.47.96.94,1.42,1.43.04.04.08.08.11.12,0,0,0,0,0,0,.47.49.92.98,1.37,1.48,0,0,0,0,0,0,.03.03.05.06.08.09.08.09.16.18.25.28.05.06.11.12.16.19,0,0,0,0,0,0,.03.03.06.07.09.1.86.99,1.7,1.99,2.5,3.03.07.09.15.19.22.28.44.57.86,1.15,1.28,1.74.02.03.04.06.06.09.4.57.79,1.15,1.18,1.73.06.08.11.17.17.25.39.6.77,1.21,1.14,1.83.04.07.09.15.13.22.35.59.7,1.19,1.03,1.79.03.05.06.11.09.16.35.64.69,1.28,1.01,1.93.05.1.1.19.14.29.44.9.86,1.81,1.26,2.73.19.42.37.85.55,1.27h0s0,0,0,0c.04.11.09.21.13.32.28.69.55,1.38.8,2.07h-117.68s0,0,0,0Z"/>
      <path class="e" d="M630.71,98.74l-55.59,102.39-55.59-102.39c-5.19-9.55-15.19-15.5-26.06-15.5h-31.12l88.39,162.79,24.38,44.9,24.38-44.9,88.39-162.79h-31.12c-10.87,0-20.87,5.95-26.06,15.5Z"/>
    </g>
    <g id="d" data-name="Mark - coral I">
      <path class="f" d="M159.49,47.28C143.69,19.63,113.92,1,79.8,1H1l197.83,342.65,65.89-114.13L159.4,47.13c.03.05.06.1.08.15Z"/>
      <path class="f" d="M317.93,1c-1.54,0-3.07.05-4.6.13-.06,0-.12,0-.18,0-48.41,2.5-86.9,42.55-86.9,91.59,0,15.71,3.95,30.49,10.91,43.42l2.69,4.65,38.09,65.97L396.73,1h-78.8Z"/>
    </g>
  </g>
</svg>