<?xml version="1.0" encoding="UTF-8"?>
<svg xmlns="http://www.w3.org/2000/svg" version="1.1" xmlns:cc="http://creativecommons.org/ns#" xmlns:dc="http://purl.org/dc/elements/1.1/" xmlns:inkscape="http://www.inkscape.org/namespaces/inkscape" xmlns:rdf="http://www.w3.org/1999/02/22-rdf-syntax-ns#" xmlns:sodipodi="http://sodipodi.sourceforge.net/DTD/sodipodi-0.dtd" xmlns:svg="http://www.w3.org/2000/svg" viewBox="0 0 436.67 80.18">
  <!-- Generator: Adobe Illustrator 29.4.0, SVG Export Plug-In . SVG Version: 2.1.0 Build 152)  -->
  <defs>
    <style>
      .st0, .st1 {
        fill: #336799;
      }

      .st2, .st1 {
        isolation: isolate;
      }

      .st3 {
        fill: #326799;
      }

      .st1 {
        font-family: ArialMT, Arial;
        font-size: 20px;
      }
    </style>
  </defs>
  <g id="svg2" inkscape:export-ydpi="400" inkscape:version="0.91 r13725" sodipodi:docname="LDO Logo.svg">
    <sodipodi:namedview id="base" bordercolor="#666666" borderopacity="1.0" inkscape:current-layer="layer1" inkscape:cx="353.40706" inkscape:cy="460.51595" inkscape:document-units="px" inkscape:pageopacity="0.0" inkscape:pageshadow="2" inkscape:window-height="1028" inkscape:window-maximized="1" inkscape:window-width="1920" inkscape:window-x="1358" inkscape:window-y="-8" inkscape:zoom="0.7" pagecolor="#ffffff" showgrid="false"/>
    <g id="layer1" inkscape:groupmode="layer" inkscape:label="Layer 1">
      <path id="path4187" class="st3" d="M8.19,72.03L.28,63.93l-.14-31.97L0,0l33.31.02,33.31.02,8.12,8.36,8.12,8.36v63.42l-33.38-.03-33.38-.03-7.9-8.09h0ZM59.65,70.47c-.05-.21-1.85-2.25-4.01-4.52l-3.92-4.13h-25.47l-4.03-4.02-4.03-4.02v-26l-4.26-4.43c-2.34-2.44-4.37-4.43-4.52-4.43-.15,0-.25,7.78-.25,19.27v19.27s6.56,6.71,6.56,6.71l6.55,6.71h18.72c15.74,0,18.71-.07,18.63-.39h0ZM73.45,46.72l.06-24-6.57-6.7-6.57-6.7H9.17v5.53l7.13,7.29,7.13,7.29,1.46-1.84c.81-1.01,2.24-2.44,3.18-3.18l1.72-1.35-1.91-2c-1.05-1.1-2.07-2.1-2.26-2.23s-.35-.35-.35-.49c0-.17,5.88-.27,15.46-.27h15.46l4.16,4.17,4.16,4.17v16.09s-.02,16.09-.02,16.09l-3.22-3.32c-1.77-1.82-3.33-3.32-3.47-3.32s-.68.59-1.21,1.3c-.89,1.19-3.64,3.71-4.7,4.31-.24.13-.39.39-.33.56s2.9,3.12,6.31,6.54l6.2,6.22,4.67-.08,4.67-.08.06-24h0ZM43.24,57.85c6.63-.91,12.07-5.57,14.34-12.26.65-1.91.87-6.07.45-8.47-1.1-6.3-6.56-12.12-13.01-13.86-4.05-1.09-9.46-.31-13.15,1.88-2.71,1.61-5.48,4.59-6.81,7.34-1.42,2.93-1.78,4.58-1.77,8.11,0,3.43.29,4.7,1.71,7.57,2.54,5.15,7.78,9.01,13.18,9.7,2.4.31,2.65.31,5.05-.02h0ZM37.83,48.76c-1.73-.71-2.65-1.35-3.78-2.64-1.51-1.72-2.12-3.73-1.94-6.43.22-3.35,1.86-5.78,4.88-7.22,3.35-1.6,7.28-.95,9.86,1.64,1.98,1.98,2.55,3.39,2.56,6.27,0,2.1-.1,2.6-.83,4.04-.91,1.8-2.07,2.96-3.9,3.91-1.43.74-5.47,1-6.84.44Z" inkscape:connector-curvature="0" inkscape:export-xdpi="400" inkscape:export-ydpi="400"/>
      <g id="text4149" class="st2" inkscape:export-xdpi="400" inkscape:export-ydpi="400" sodipodi:linespacing="125%">
        <g class="st2">
          <path class="st0" d="M93.54,60.51V24.82h7.57v29.44h14.48v6.25h-22.05Z"/>
          <path class="st0" d="M151.4,42.32c0,4.02-.77,7.38-2.31,10.07s-3.76,4.72-6.68,6.08c-2.91,1.36-6.42,2.04-10.52,2.04h-10.11V24.82h11.21c3.74,0,6.99.66,9.74,1.99,2.75,1.33,4.88,3.29,6.4,5.88,1.51,2.6,2.27,5.81,2.27,9.63ZM143.54,42.52c0-2.64-.39-4.81-1.16-6.51-.77-1.7-1.91-2.96-3.42-3.77-1.51-.81-3.37-1.22-5.58-1.22h-4.03v23.24h3.25c3.69,0,6.44-.98,8.24-2.95,1.8-1.97,2.7-4.9,2.7-8.79Z"/>
          <path class="st0" d="M191.2,42.61c0,2.75-.34,5.25-1.03,7.51-.68,2.25-1.72,4.2-3.11,5.82s-3.15,2.88-5.29,3.75c-2.13.87-4.66,1.31-7.57,1.31s-5.44-.44-7.57-1.31c-2.13-.87-3.89-2.12-5.29-3.75s-2.43-3.57-3.11-5.83c-.68-2.26-1.03-4.78-1.03-7.54,0-3.69.61-6.91,1.82-9.66,1.21-2.74,3.08-4.87,5.6-6.38,2.52-1.51,5.73-2.27,9.62-2.27s7.06.76,9.56,2.27c2.5,1.51,4.35,3.65,5.57,6.4,1.21,2.75,1.82,5.98,1.82,9.69ZM165.15,42.61c0,2.49.31,4.63.94,6.43.63,1.8,1.61,3.18,2.94,4.15,1.33.97,3.06,1.45,5.18,1.45s3.89-.48,5.22-1.45c1.33-.97,2.31-2.35,2.92-4.15.61-1.8.92-3.94.92-6.43,0-3.74-.7-6.69-2.1-8.84-1.4-2.15-3.7-3.22-6.91-3.22-2.13,0-3.87.48-5.21,1.45-1.34.97-2.33,2.35-2.95,4.15-.63,1.8-.94,3.95-.94,6.46Z"/>
          <path class="st0" d="M226.7,60.51l-8.59-28h-.22c.03.67.09,1.67.16,3.01.07,1.34.14,2.77.21,4.29.06,1.51.1,2.88.1,4.1v16.6h-6.76V24.82h10.3l8.45,27.29h.15l8.96-27.29h10.3v35.69h-7.06v-16.89c0-1.12.02-2.42.06-3.88.04-1.46.09-2.86.16-4.19.06-1.33.11-2.32.15-2.99h-.22l-9.2,27.95h-6.93Z"/>
          <path class="st0" d="M291.12,42.61c0,2.75-.34,5.25-1.03,7.51-.68,2.25-1.72,4.2-3.11,5.82s-3.15,2.88-5.29,3.75c-2.13.87-4.65,1.31-7.57,1.31s-5.44-.44-7.57-1.31c-2.13-.87-3.89-2.12-5.29-3.75s-2.43-3.57-3.11-5.83c-.68-2.26-1.03-4.78-1.03-7.54,0-3.69.61-6.91,1.82-9.66,1.21-2.74,3.08-4.87,5.6-6.38,2.52-1.51,5.73-2.27,9.62-2.27s7.06.76,9.56,2.27,4.35,3.65,5.57,6.4c1.21,2.75,1.82,5.98,1.82,9.69ZM265.07,42.61c0,2.49.31,4.63.94,6.43.63,1.8,1.61,3.18,2.94,4.15,1.33.97,3.06,1.45,5.18,1.45s3.89-.48,5.22-1.45c1.33-.97,2.31-2.35,2.92-4.15.61-1.8.92-3.94.92-6.43,0-3.74-.7-6.69-2.1-8.84-1.4-2.15-3.7-3.22-6.91-3.22-2.13,0-3.87.48-5.21,1.45-1.34.97-2.33,2.35-2.95,4.15-.63,1.8-.94,3.95-.94,6.46Z"/>
          <path class="st0" d="M312.29,60.51h-7.57v-29.39h-9.69v-6.3h26.95v6.3h-9.69v29.39Z"/>
          <path class="st0" d="M327.48,60.51V24.82h7.57v35.69h-7.57Z"/>
          <path class="st0" d="M376.43,42.61c0,2.75-.34,5.25-1.03,7.51-.68,2.25-1.72,4.2-3.11,5.82s-3.15,2.88-5.29,3.75c-2.13.87-4.65,1.31-7.57,1.31s-5.44-.44-7.57-1.31c-2.13-.87-3.89-2.12-5.29-3.75s-2.43-3.57-3.11-5.83c-.68-2.26-1.03-4.78-1.03-7.54,0-3.69.61-6.91,1.82-9.66,1.21-2.74,3.08-4.87,5.6-6.38,2.52-1.51,5.73-2.27,9.62-2.27s7.06.76,9.56,2.27,4.35,3.65,5.57,6.4c1.21,2.75,1.82,5.98,1.82,9.69ZM350.38,42.61c0,2.49.31,4.63.94,6.43.63,1.8,1.61,3.18,2.94,4.15,1.33.97,3.06,1.45,5.18,1.45s3.89-.48,5.22-1.45c1.33-.97,2.31-2.35,2.92-4.15.61-1.8.92-3.94.92-6.43,0-3.74-.7-6.69-2.1-8.84-1.4-2.15-3.7-3.22-6.91-3.22-2.13,0-3.87.48-5.21,1.45-1.34.97-2.33,2.35-2.95,4.15-.63,1.8-.94,3.95-.94,6.46Z"/>
          <path class="st0" d="M415.49,60.51h-9.62l-15.53-27h-.22c.06,1.12.12,2.25.17,3.39s.1,2.27.15,3.41c.05,1.13.1,2.27.15,3.41v16.8h-6.76V24.82h9.54l15.5,26.73h.17c-.03-1.11-.07-2.21-.12-3.3-.05-1.09-.09-2.18-.13-3.27-.04-1.09-.08-2.18-.11-3.27v-16.89h6.81v35.69Z"/>
        </g>
      </g>
      <g id="text4181" class="st2" inkscape:export-xdpi="400" inkscape:export-ydpi="400" sodipodi:linespacing="125%">
        <text class="st1" transform="translate(421.91 24.65)"><tspan x="0" y="0">®</tspan></text>
      </g>
    </g>
  </g>
</svg>