<svg version="1.1" id="Logo" xmlns="http://www.w3.org/2000/svg" xmlns:xlink="http://www.w3.org/1999/xlink" x="0px" y="0px"
	 viewBox="0 0 864 216" enable-background="new 0 0 864 216" xml:space="preserve">
<g>
	<g id="Hackers_7_">
		<path fill="#065798" d="M794.972,125.57c7.001,0,17.998,0,20.964,0c2.649,0,5.929,2.611,5.929,7.314c0,4.615-3.2,6.99-5.929,6.99c-2.857,0-36.859,0-36.859,0v12.283c0,0,32.106,0,40.284,0c8.209,0,16.682-5.164,16.682-19.273c0-14.148-8.364-19.607-16.682-19.607c-7.825,0-18.506,0-21.05,0c-2.563,0-5.96-2.484-5.96-7.236c0-5.225,3.523-7.059,5.96-7.059c2.239,0,35.789,0,35.789,0V86.689c0,0-29.681,0-39.186,0c-9.477,0-16.801,7-16.801,19.586C778.113,118.491,785.665,125.57,794.972,125.57z"/>
		<path fill="#065798" d="M745.771,98.922c2.484,0,5.421,0,7.433,0c4.489,0,6.885,2.308,6.885,6.697c0,1.895,0,10.437,0,10.437h14.235c0,0,0-8.121,0-13.402c0-6.707-4.458-16.025-17.622-16.025c-4.872,0-8.446,0-10.931,0c-3.159,0-4.565,0-4.565,0h-9.609v65.529h14.175V98.922z"/>
		<path fill="#065798" d="M701.332,152.158c19.333,0,23.616,0,23.616,0v-12.352c0,0-11.998,0-22.329,0c-9.071,0-13.628-6.461-15.139-14.236h37.468v-12.353H687.48c1.562-7.785,6.361-14.295,15.139-14.295c7.954,0,22.26,0,22.26,0V86.629c0,0-5.754,0-22.495,0c-23.986,0-30.644,18.401-30.644,33.06C671.74,134.113,678.397,152.158,701.332,152.158z"/>
		<path fill="#065798" d="M628.078,123.597c4.546,0,16.446,0,19.688,0c4.506,0,6.891,2.316,6.891,6.694c0,1.906,0,21.848,0,21.848h14.236c0,0,0-19.52,0-24.811c0-6.697-4.456-16.024-17.623-16.024c-2.033,0-4.182,0-6.323,0l28.533-24.674h-18.401l-27,23.152v-45.94h-14.235v88.317h14.235V123.597z"/>
		<path fill="#065798" d="M585.455,152.158c19.343,0,23.635,0,23.635,0v-12.352c0,0-12.008,0-22.327,0c-11.399,0-15.67-10.213-15.729-20.412c-0.048-10.182,4.692-20.472,15.729-20.472c7.953,0,22.248,0,22.248,0V86.629c0,0-5.744,0-22.484,0c-23.987,0-30.635,18.401-30.635,33.06C555.892,134.113,562.539,152.158,585.455,152.158z"/>
		<path fill="#065798" d="M513.743,111.313c-16.25,0-23.31,9.563-23.31,20.481c0,10.811,7.648,20.363,23.554,20.363c9.032,0,18.921,0,22.917,0c1.159,0,1.837,0,1.837,0h12.351c0,0,0-34.953,0-44.281c0-11.037-4.702-21.248-20.835-21.248c-11.223,0-37.054,0-37.054,0v12.293c0,0,30.524,0,35.267,0c4.753,0,8.435,3.732,8.435,8.592c0,0.44,0,1.806,0,3.799C532.133,111.313,519.388,111.313,513.743,111.313z M536.904,139.875c-5.311,0-20.521,0-23.456,0c-4.616,0-7.943-4.211-7.943-8.139c0-3.918,3.269-8.13,7.589-8.13c2.366,0,18.342,0,23.811,0C536.904,128.986,536.904,134.859,536.904,139.875z"/>
		<polygon fill="#065798" points="424.846,113.17 470.433,113.17 470.433,152.158 484.671,152.158 484.671,63.852 470.433,63.852 470.433,100.867 424.846,100.867 424.846,63.852 410.609,63.852 410.609,152.158 424.846,152.158 		"/>
	</g>
	<g id="Matter_7_">
		<path fill="#065798" d="M374.526,102.712c2.965,0,5.783,0,7.217,0c4.055,0,5.125,2.799,5.125,4.695c0,1.894,0,8.65,0,8.65h18.979c0,0,0-8.121,0-13.402c0-6.707-7.235-16.025-18.281-16.025c-4.31,0-8.974,0-13.039,0h-11.292h-8.669v65.529h19.961V102.712z"/>
		<path fill="#065798" d="M320.741,152.158c19.342,0,22.671,0,27.188,0c0-7.834,0-12.951,0-16.15c-4.399,0-16.741,0-27.069,0c-5.106,0-8.503-3.664-10.202-8.543h37.271v-16.151h-37.241c1.728-4.898,5.115-8.602,10.172-8.602c7.953,0,24.104,0,27,0c0-2.896,0-11.929,0-16.083c-3.378,0-10.506,0-27.246,0c-23.27,0-30.624,18.401-30.624,33.06C289.989,133.758,297.246,152.158,320.741,152.158z"/>
		<path fill="#065798" d="M209.282,132.697c0,9.24,7.236,19.461,19.568,19.461c9.082,0,16.495,0,16.495,0v-16.092c0,0-6.578,0-10.427,0c-3.859,0-5.773-1.66-5.773-6.225c0-1.553,0-14.238,0-28.071h24.752c0,13.991,0,27.335,0,30.927c0,9.24,7.246,19.461,19.578,19.461c9.092,0,16.515,0,16.515,0v-16.092c0,0-6.578,0-10.447,0c-3.849,0-5.753-1.66-5.753-6.225c0-1.553,0-14.238,0-28.071h15.199V86.629h-15.199c0-12.489,0-22.788,0-22.788h-19.892c0,0,0,10.182,0,22.788h-24.752c0-12.489,0-22.788,0-22.788h-19.863c0,0,0,10.182,0,22.788h-10.456v15.141h10.456C209.282,115.762,209.282,129.105,209.282,132.697z"/>
		<path fill="#065798" d="M153.582,111.313c-16.24,0-22.67,9.976-22.67,20.896c0,10.809,7.02,19.949,22.916,19.949c8.277,0,18.145,0,23.152,0h3.259h15.739c0,0,0-34.953,0-44.281c0-11.037-7.354-21.248-22.072-21.248c-11.213,0-38.714,0-38.714,0v15.141c0,0,28.385,0,33.118,0c4.752,0,8.67,3.74,8.67,8.601c0,0.187,0,0.49,0,0.942C171.088,111.313,158.825,111.313,153.582,111.313z M176.979,136.066c-6.127,0-19.028,0-21.709,0c-3.23,0-4.88-2.543-4.88-4.92c0-2.375,1.649-4.691,4.507-4.691c2.17,0,15.749,0,22.082,0C176.979,129.615,176.979,132.924,176.979,136.066z"/>
		<polygon fill="#065798" points="45.805,97.794 64.391,152.139 67.965,152.139 83.625,152.139 87.189,152.139 105.756,97.794 105.756,152.158 125.628,152.158 125.628,63.841 105.756,63.841 105.756,63.841 97.725,63.841 75.771,128.908 53.846,63.841 45.805,63.841 45.805,63.841 25.922,63.841 25.922,152.158 45.805,152.158 		"/>
	</g>
</g>
</svg>
