<?xml version="1.0" encoding="UTF-8" standalone="no"?> <svg xmlns:inkscape="http://www.inkscape.org/namespaces/inkscape" xmlns:sodipodi="http://sodipodi.sourceforge.net/DTD/sodipodi-0.dtd" xmlns="http://www.w3.org/2000/svg" xmlns:svg="http://www.w3.org/2000/svg" version="1.1" id="svg1" width="6666.6665" height="1800" viewBox="0 0 6666.6665 1800"><defs id="defs1"><clipPath id="clipPath2"><path d="M 0,1350 H 5000 V 0 H 0 Z" transform="translate(-986.0626,-840.98402)" id="path2"></path></clipPath><clipPath id="clipPath4"><path d="M 0,1350 H 5000 V 0 H 0 Z" transform="translate(-3614.8319,-865.62412)" id="path4"></path></clipPath><clipPath id="clipPath6"><path d="M 0,1350 H 5000 V 0 H 0 Z" transform="translate(-4373.5152,-837.46752)" id="path6"></path></clipPath><clipPath id="clipPath8"><path d="M 0,1350 H 5000 V 0 H 0 Z" transform="translate(-2167.501,-1065.4824)" id="path8"></path></clipPath><clipPath id="clipPath10"><path d="M 0,1350 H 5000 V 0 H 0 Z" transform="translate(-2765.0733,-769.80162)" id="path10"></path></clipPath><clipPath id="clipPath12"><path d="M 0,1350 H 5000 V 0 H 0 Z" transform="translate(-3346.1986,-758.85042)" id="path12"></path></clipPath><clipPath id="clipPath14"><path d="M 0,1350 H 5000 V 0 H 0 Z" transform="translate(-4740.7789,-1278.3286)" id="path14"></path></clipPath><clipPath id="clipPath16"><path d="M 0,1350 H 5000 V 0 H 0 Z" transform="translate(-2556.7455,-1065.4824)" id="path16"></path></clipPath><clipPath id="clipPath18"><path d="M 0,1350 H 5000 V 0 H 0 Z" id="path18"></path></clipPath><clipPath id="clipPath20"><path d="M 0,1350 H 5000 V 0 H 0 Z" id="path20"></path></clipPath><clipPath id="clipPath22"><path d="M 0,1350 H 5000 V 0 H 0 Z" transform="translate(-196.6095,-916.27313)" id="path22"></path></clipPath><clipPath id="clipPath24"><path d="M 0,1350 H 5000 V 0 H 0 Z" transform="translate(-986.0626,-840.98402)" id="path24"></path></clipPath><clipPath id="clipPath26"><path d="M 0,1350 H 5000 V 0 H 0 Z" transform="translate(-92.445505,-239.95861)" id="path26"></path></clipPath><clipPath id="clipPath28"><path d="M 0,1350 H 5000 V 0 H 0 Z" id="path28"></path></clipPath><clipPath id="clipPath30"><path d="M 0,1350 H 5000 V 0 H 0 Z" transform="translate(-272.58441,-239.95861)" id="path30"></path></clipPath><clipPath id="clipPath32"><path d="M 0,1350 H 5000 V 0 H 0 Z" transform="translate(-471.57331,-142.20188)" id="path32"></path></clipPath><clipPath id="clipPath34"><path d="M 0,1350 H 5000 V 0 H 0 Z" transform="translate(-681.48562,-146.17088)" id="path34"></path></clipPath><clipPath id="clipPath36"><path d="M 0,1350 H 5000 V 0 H 0 Z" transform="translate(-826.63735,-151.1334)" id="path36"></path></clipPath><clipPath id="clipPath38"><path d="M 0,1350 H 5000 V 0 H 0 Z" transform="translate(-862.11962,-72.729227)" id="path38"></path></clipPath><clipPath id="clipPath40"><path d="M 0,1350 H 5000 V 0 H 0 Z" transform="translate(-1057.1418,-221.59883)" id="path40"></path></clipPath><clipPath id="clipPath42"><path d="M 0,1350 H 5000 V 0 H 0 Z" transform="translate(-1144.2354,-99.029477)" id="path42"></path></clipPath><clipPath id="clipPath44"><path d="M 0,1350 H 5000 V 0 H 0 Z" transform="translate(-1322.1369,-239.95861)" id="path44"></path></clipPath><clipPath id="clipPath46"><path d="M 0,1350 H 5000 V 0 H 0 Z" transform="translate(-1456.1238,-155.35118)" id="path46"></path></clipPath><clipPath id="clipPath48"><path d="M 0,1350 H 5000 V 0 H 0 Z" transform="translate(-1635.5172,-161.55443)" id="path48"></path></clipPath><clipPath id="clipPath50"><path d="M 0,1350 H 5000 V 0 H 0 Z" id="path50"></path></clipPath><clipPath id="clipPath52"><path d="M 0,1350 H 5000 V 0 H 0 Z" transform="translate(-1859.3218,-72.729227)" id="path52"></path></clipPath><clipPath id="clipPath54"><path d="M 0,1350 H 5000 V 0 H 0 Z" transform="translate(-2044.1721,-89.849177)" id="path54"></path></clipPath><clipPath id="clipPath56"><path d="M 0,1350 H 5000 V 0 H 0 Z" transform="translate(-2209.4203,-239.95861)" id="path56"></path></clipPath><clipPath id="clipPath58"><path d="M 0,1350 H 5000 V 0 H 0 Z" transform="translate(-2345.3907,-99.029477)" id="path58"></path></clipPath><clipPath id="clipPath60"><path d="M 0,1350 H 5000 V 0 H 0 Z" transform="translate(-2502.4513,-221.59883)" id="path60"></path></clipPath><clipPath id="clipPath62"><path d="M 0,1350 H 5000 V 0 H 0 Z" transform="translate(-2615.5963,-161.55443)" id="path62"></path></clipPath><clipPath id="clipPath64"><path d="M 0,1350 H 5000 V 0 H 0 Z" id="path64"></path></clipPath><clipPath id="clipPath66"><path d="M 0,1350 H 5000 V 0 H 0 Z" transform="translate(-2868.6793,-142.20188)" id="path66"></path></clipPath><clipPath id="clipPath68"><path d="M 0,1350 H 5000 V 0 H 0 Z" transform="translate(-2938.6534,-239.95861)" id="path68"></path></clipPath><clipPath id="clipPath70"><path d="M 0,1350 H 5000 V 0 H 0 Z" transform="translate(-3190.243,-142.20188)" id="path70"></path></clipPath><clipPath id="clipPath72"><path d="M 0,1350 H 5000 V 0 H 0 Z" transform="translate(-3281.8038,-157.33658)" id="path72"></path></clipPath><clipPath id="clipPath74"><path d="M 0,1350 H 5000 V 0 H 0 Z" transform="translate(-3413.8063,-157.33658)" id="path74"></path></clipPath><clipPath id="clipPath76"><path d="M 0,1350 H 5000 V 0 H 0 Z" transform="translate(-3524.222,-239.95861)" id="path76"></path></clipPath><clipPath id="clipPath78"><path d="M 0,1350 H 5000 V 0 H 0 Z" id="path78"></path></clipPath><clipPath id="clipPath80"><path d="M 0,1350 H 5000 V 0 H 0 Z" transform="translate(-3817.4979,-78.187727)" id="path80"></path></clipPath><clipPath id="clipPath82"><path d="M 0,1350 H 5000 V 0 H 0 Z" transform="translate(-3927.4144,-142.20188)" id="path82"></path></clipPath><clipPath id="clipPath84"><path d="M 0,1350 H 5000 V 0 H 0 Z" transform="translate(-4010.0431,-221.59883)" id="path84"></path></clipPath><clipPath id="clipPath86"><path d="M 0,1350 H 5000 V 0 H 0 Z" id="path86"></path></clipPath><clipPath id="clipPath88"><path d="M 0,1350 H 5000 V 0 H 0 Z" transform="translate(-4174.0528,-155.35118)" id="path88"></path></clipPath><clipPath id="clipPath90"><path d="M 0,1350 H 5000 V 0 H 0 Z" transform="translate(-4331.8595,-72.729227)" id="path90"></path></clipPath><clipPath id="clipPath92"><path d="M 0,1350 H 5000 V 0 H 0 Z" transform="translate(-4492.1461,-99.029477)" id="path92"></path></clipPath></defs><g id="layer-MC0"><path id="path1" d="m 0,0 h -127.464 c -0.291,0 -4.112,-3.816 -4.112,-4.107 v -347.699 c 0,-0.29 3.821,-4.106 4.112,-4.106 h 452.291 c 77.897,0 154.532,81.859 160.456,157.325 5.174,65.924 5.173,180.671 0,246.596 -6.336,80.727 -86.208,160.063 -168.679,160.063 h -444.068 c -0.291,0 -4.112,-3.817 -4.112,-4.107 V 76.658 h 442.697 c 1.632,0 16.272,-4.525 18.935,-5.729 15.626,-7.064 22.199,-20.047 23.665,-36.595 6.24,-70.439 -4.684,-150.192 -0.356,-221.629 -1.052,-16.838 -19.97,-37.203 -36.761,-37.203 l -316.604,0 z m -789.453,75.289 c -1.42,-13.419 1.03,-28.772 0,-42.436 h 128.834 c 0.403,18.357 4.735,40.344 26.217,43.629 l 270.959,-0.063 c 39.396,3.165 33.459,-84.632 8.463,-84.632 h -264.521 v -131.414 h 272.745 c 2.849,0 13.345,-8.022 15.712,-11.685 12.385,-19.162 10.861,-70.66 -18.705,-72.935 l -298.378,-0.095 c -18.571,2.931 -23.805,24.82 -23.456,40.91 h -128.835 v -42.435 c 0,-70.731 81.853,-125.51 146.547,-130.151 101.098,-7.251 210.692,5.724 312.703,0 147.873,4.624 201.587,203.25 80.658,283.619 -1.866,6.48 11.227,12.724 16.61,18.952 90.155,104.309 22.682,252.951 -116.447,261.633 -79.393,4.955 -194.951,4.952 -274.346,0 -76.816,-4.79 -146.191,-51.915 -154.76,-132.897 M 575.643,-481.85 h -1469.26 v 806.278 c 0,0.29 3.821,4.106 4.112,4.106 H 571.531 c 0.291,0 4.112,-3.816 4.112,-4.106 z" style="fill:#029ed7;fill-opacity:1;fill-rule:nonzero;stroke:none" transform="matrix(1.3333333,0,0,-1.3333333,1314.7501,678.688)" clip-path="url(#clipPath2)"></path><path id="path3" d="m 0,0 c 25.273,37.482 55.892,61.957 102.836,65.666 56.668,4.478 102.853,-15.395 126.063,-68.391 62.248,105.509 232.732,88.964 250.771,-42.481 9.727,-70.878 2.535,-165.692 -0.081,-238.042 -0.662,-18.322 3.096,-46.798 0.112,-63.08 -0.417,-2.276 -2.184,-6.846 -4.11,-6.846 H 374.168 c -0.291,0 -4.112,3.816 -4.112,4.106 v 279.254 c 0,1.626 -7.418,17.971 -9.202,20.925 -18.845,31.186 -75.553,30.354 -98.915,4.926 -9.496,-10.336 -20.717,-39.705 -20.717,-53.228 v -251.877 c 0,-0.29 -3.821,-4.106 -4.112,-4.106 h -98.682 c -0.29,0 -4.111,3.816 -4.111,4.106 V -86.24 c 0,3.119 -5.311,24.597 -6.888,28.712 -16.031,41.833 -89.06,39.821 -112.17,5.327 -2.647,-3.95 -9.777,-19.543 -9.777,-23.088 v -273.779 c 0,-0.29 -3.821,-4.106 -4.111,-4.106 h -101.423 c -0.291,0 -4.112,3.816 -4.112,4.106 V 54.756 L 0,54.756 Z" style="fill:#0368ac;fill-opacity:1;fill-rule:nonzero;stroke:none" transform="matrix(1.3333333,0,0,-1.3333333,4819.7757,645.83453)" clip-path="url(#clipPath4)"></path><path id="path5" d="m 0,0 c -81.652,-8.547 -91.121,-116.753 -74.163,-179.314 14.1,-52.013 66.141,-79.329 117.436,-61 C 129.474,-209.513 130.945,13.708 0,0 M -76.135,-275.738 V -483.809 H -183.041 V 81.543 c 0,0.291 3.821,4.107 4.112,4.107 h 95.941 c 0.29,0 4.112,-3.816 4.112,-4.107 V 28.157 l 33.123,36.73 c 74.58,56.529 184.186,27.018 230.491,-51.326 41.957,-70.988 38.553,-202.97 -4.801,-272.647 -55.66,-89.457 -193.786,-108.338 -256.072,-16.652" style="fill:#0368ac;fill-opacity:1;fill-rule:nonzero;stroke:none" transform="matrix(1.3333333,0,0,-1.3333333,5831.3535,683.37667)" clip-path="url(#clipPath6)"></path><path id="path7" d="m 0,0 v -98.56 h -276.857 v -125.938 h 243.963 v -91.716 c 0,-0.291 -3.821,-4.107 -4.112,-4.107 h -239.851 v -229.974 c -2.691,0.889 -5.946,-2.738 -6.853,-2.738 H -391.985 V 0 Z" style="fill:#0368ac;fill-opacity:1;fill-rule:nonzero;stroke:none" transform="matrix(1.3333333,0,0,-1.3333333,2890.0013,379.3568)" clip-path="url(#clipPath8)"></path><path id="path9" d="M 0,0 132.946,150.578 H 263.151 L 120.884,-1.758 270.035,-251.927 c 2.7,-1.449 -2.467,-5.425 -2.772,-5.425 H 143.911 L 43.814,-82.135 C 37.811,-86.982 0,-124.162 0,-127.307 v -125.938 c 0,-0.291 -3.821,-4.107 -4.112,-4.107 h -98.681 c -0.291,0 -4.112,3.816 -4.112,4.107 v 544.819 c 0,0.291 3.821,4.107 4.112,4.107 h 98.681 c 0.291,0 4.112,-3.816 4.112,-4.107 z" style="fill:#0368ac;fill-opacity:1;fill-rule:nonzero;stroke:none" transform="matrix(1.3333333,0,0,-1.3333333,3686.7643,773.59787)" clip-path="url(#clipPath10)"></path><path id="path11" d="m 0,0 c -1.103,114.608 -175.809,114.578 -180.917,0 z m 112.387,-71.182 h -296.044 c -8.893,-85.43 102.658,-133.114 163.09,-79.388 4.717,4.195 17.634,24.632 19.196,24.632 h 108.276 c -11.673,-65.228 -73.96,-114.955 -136.962,-127.403 -111.141,-21.959 -232.723,23.557 -256.49,143.734 -32.179,162.718 53.655,306.09 232.773,281.766 C 33.603,160.294 112.387,85.331 112.387,-6.844 Z" style="fill:#0368ac;fill-opacity:1;fill-rule:nonzero;stroke:none" transform="matrix(1.3333333,0,0,-1.3333333,4461.598,788.19947)" clip-path="url(#clipPath12)"></path><path id="path13" d="M 0,0 C 215.628,27.269 220.562,-288.198 24.099,-286.87 -154.289,-285.664 -163.622,-20.692 0,0" style="fill:#0368ac;fill-opacity:1;fill-rule:nonzero;stroke:none" transform="matrix(1.3333333,0,0,-1.3333333,6321.0384,95.561867)" clip-path="url(#clipPath14)"></path><path id="path15" d="m 0,0 v -548.926 c 0,-0.29 -3.821,-4.107 -4.112,-4.107 H -106.905 V 0 Z" style="fill:#0368ac;fill-opacity:1;fill-rule:nonzero;stroke:none" transform="matrix(1.3333333,0,0,-1.3333333,3408.9939,379.3568)" clip-path="url(#clipPath16)"></path><path id="path17" d="M 2342.935,515.187 H 2236.03 v 407.93 h 106.905 z" style="fill:#0368ac;fill-opacity:1;fill-rule:nonzero;stroke:none" transform="matrix(1.3333333,0,0,-1.3333333,0,1800)" clip-path="url(#clipPath18)"></path><path id="path19" d="M 2342.935,969.66 H 2236.03 v 98.56 h 106.905 z" style="fill:#0368ac;fill-opacity:1;fill-rule:nonzero;stroke:none" transform="matrix(1.3333333,0,0,-1.3333333,0,1800)" clip-path="url(#clipPath20)"></path><path id="path21" d="m 0,0 c 8.569,80.982 77.944,128.107 154.761,132.897 79.394,4.951 194.952,4.955 274.345,0 139.129,-8.682 206.602,-157.324 116.447,-261.633 -5.383,-6.228 -18.476,-12.472 -16.61,-18.952 120.929,-80.369 67.215,-278.995 -80.658,-283.619 -102.011,5.724 -211.605,-7.251 -312.703,0 -64.693,4.641 -146.547,59.42 -146.547,130.151 v 42.435 H 117.87 c -0.349,-16.09 4.885,-37.979 23.456,-40.911 l 298.378,0.096 c 29.566,2.275 31.09,53.773 18.705,72.935 -2.367,3.663 -12.863,11.685 -15.712,11.685 H 169.952 v 131.413 h 264.521 c 24.996,0 30.933,87.798 -8.463,84.632 L 155.051,1.193 C 133.569,-2.093 129.237,-24.079 128.834,-42.436 H 0 C 1.03,-28.772 -1.42,-13.419 0,0" style="fill:#fefeff;fill-opacity:1;fill-rule:nonzero;stroke:none" transform="matrix(1.3333333,0,0,-1.3333333,262.146,578.30253)" clip-path="url(#clipPath22)"></path><path id="path23" d="m 0,0 v -224.498 h 316.604 c 16.791,0 35.709,20.365 36.761,37.203 -4.328,71.437 6.596,151.19 0.356,221.629 -1.466,16.548 -8.039,29.531 -23.665,36.595 -2.663,1.204 -17.303,5.729 -18.935,5.729 h -442.697 v 127.307 c 0,0.29 3.821,4.107 4.112,4.107 h 444.068 c 82.471,0 162.343,-79.336 168.679,-160.063 5.173,-65.925 5.174,-180.672 0,-246.596 -5.924,-75.466 -82.559,-157.325 -160.456,-157.325 h -452.291 c -0.291,0 -4.112,3.816 -4.112,4.106 V -4.107 c 0,0.291 3.821,4.107 4.112,4.107 z" style="fill:#fefeff;fill-opacity:1;fill-rule:nonzero;stroke:none" transform="matrix(1.3333333,0,0,-1.3333333,1314.7501,678.688)" clip-path="url(#clipPath24)"></path><path id="path25" d="M 0,0 H 90.066 V -18.112 H 21.586 V -73.69 H 84.855 V -91.554 H 21.586 v -75.675 H 0 Z" style="fill:#000000;fill-opacity:1;fill-rule:nonzero;stroke:none" transform="matrix(1.3333333,0,0,-1.3333333,123.26067,1480.0552)" clip-path="url(#clipPath26)"></path><path id="path27" d="m 234.868,72.729 h -21.586 v 167.229 h 21.586 z" style="fill:#000000;fill-opacity:1;fill-rule:nonzero;stroke:none" transform="matrix(1.3333333,0,0,-1.3333333,0,1800)" clip-path="url(#clipPath28)"></path><path id="path29" d="m 0,0 h 21.586 v -149.117 h 71.457 v -18.112 H 0 Z" style="fill:#000000;fill-opacity:1;fill-rule:nonzero;stroke:none" transform="matrix(1.3333333,0,0,-1.3333333,363.44587,1480.0552)" clip-path="url(#clipPath30)"></path><path id="path31" d="m 0,0 -16.375,48.134 c -3.722,10.917 -6.203,20.842 -8.685,30.518 h -0.496 c -2.481,-9.925 -5.21,-20.097 -8.436,-30.27 L -50.367,0 Z m -54.834,-16.872 -17.367,-52.601 h -22.331 l 56.818,167.23 h 26.053 L 45.405,-69.473 H 22.33 L 4.466,-16.872 Z" style="fill:#000000;fill-opacity:1;fill-rule:nonzero;stroke:none" transform="matrix(1.3333333,0,0,-1.3333333,628.7644,1610.3975)" clip-path="url(#clipPath32)"></path><path id="path33" d="M 0,0 C -1.241,23.323 -2.729,51.36 -2.481,72.202 H -3.226 C -8.932,52.601 -15.879,31.511 -24.316,8.684 L -53.841,-72.449 H -70.217 L -97.262,7.196 c -7.939,23.571 -14.638,45.157 -19.353,65.006 h -0.496 c -0.496,-20.842 -1.736,-48.879 -3.225,-73.939 l -4.466,-71.705 h -20.594 l 11.662,167.23 h 27.54 L -77.66,12.902 c 6.947,-20.593 12.654,-38.954 16.872,-56.322 h 0.744 c 4.218,16.872 10.173,35.232 17.616,56.322 l 29.774,80.886 H 14.887 L 25.308,-73.442 H 4.218 Z" style="fill:#000000;fill-opacity:1;fill-rule:nonzero;stroke:none" transform="matrix(1.3333333,0,0,-1.3333333,908.64747,1605.1055)" clip-path="url(#clipPath34)"></path><path id="path35" d="M 0,0 H -65.006 V -60.292 H 7.443 V -78.404 H -86.593 V 88.825 H 3.721 V 70.713 H -65.006 V 17.865 l 65.006,0 z" style="fill:#000000;fill-opacity:1;fill-rule:nonzero;stroke:none" transform="matrix(1.3333333,0,0,-1.3333333,1102.1831,1598.4888)" clip-path="url(#clipPath36)"></path><path id="path37" d="M 0,0 V 167.229 H 23.571 L 77.164,82.622 C 89.57,63.022 99.246,45.405 107.186,28.285 l 0.496,0.249 c -1.985,22.329 -2.481,42.675 -2.481,68.727 v 69.968 h 20.345 V 0 H 103.713 L 50.616,84.855 c -11.661,18.609 -22.827,37.714 -31.263,55.826 l -0.744,-0.248 c 1.24,-21.09 1.737,-41.187 1.737,-68.976 L 20.346,0 Z" style="fill:#000000;fill-opacity:1;fill-rule:nonzero;stroke:none" transform="matrix(1.3333333,0,0,-1.3333333,1149.4928,1703.0277)" clip-path="url(#clipPath38)"></path><path id="path39" d="M 0,0 H -50.863 V 18.36 H 72.946 V 0 H 21.835 V -148.87 H 0 Z" style="fill:#000000;fill-opacity:1;fill-rule:nonzero;stroke:none" transform="matrix(1.3333333,0,0,-1.3333333,1409.5224,1504.5349)" clip-path="url(#clipPath40)"></path><path id="path41" d="m 0,0 c 9.676,-5.955 23.819,-10.917 38.706,-10.917 22.082,0 34.984,11.661 34.984,28.533 0,15.631 -8.932,24.564 -31.51,33.247 -27.293,9.677 -44.165,23.819 -44.165,47.39 0,26.053 21.586,45.405 54.089,45.405 17.12,0 29.526,-3.97 36.969,-8.187 l -5.954,-17.616 c -5.459,2.977 -16.624,7.939 -31.759,7.939 -22.826,0 -31.511,-13.646 -31.511,-25.059 0,-15.632 10.173,-23.323 33.248,-32.255 28.285,-10.918 42.675,-24.564 42.675,-49.127 0,-25.804 -19.104,-48.383 -58.555,-48.383 -16.127,0 -33.743,4.963 -42.675,10.917 z" style="fill:#000000;fill-opacity:1;fill-rule:nonzero;stroke:none" transform="matrix(1.3333333,0,0,-1.3333333,1525.6472,1667.9607)" clip-path="url(#clipPath42)"></path><path id="path43" d="M 0,0 H 90.066 V -18.112 H 21.587 V -73.69 H 84.855 V -91.554 H 21.587 v -75.675 H 0 Z" style="fill:#000000;fill-opacity:1;fill-rule:nonzero;stroke:none" transform="matrix(1.3333333,0,0,-1.3333333,1762.8491,1480.0552)" clip-path="url(#clipPath44)"></path><path id="path45" d="m 0,0 c 0,-35.729 19.353,-67.735 53.345,-67.735 34.239,0 53.593,31.51 53.593,69.472 0,33.248 -17.368,67.984 -53.345,67.984 C 17.865,69.721 0,36.721 0,0 m 129.764,2.73 c 0,-57.563 -34.984,-88.081 -77.659,-88.081 -44.165,0 -75.179,34.24 -75.179,84.855 0,53.097 32.999,87.833 77.659,87.833 45.654,0 75.179,-34.984 75.179,-84.607" style="fill:#000000;fill-opacity:1;fill-rule:nonzero;stroke:none" transform="matrix(1.3333333,0,0,-1.3333333,1941.4984,1592.8651)" clip-path="url(#clipPath46)"></path><path id="path47" d="m 0,0 h 22.082 c 23.075,0 37.714,12.654 37.714,31.759 0,21.586 -15.632,31.015 -38.458,31.263 C 10.917,63.022 3.473,62.029 0,61.036 Z m -21.587,76.172 c 10.917,2.232 26.549,3.473 41.436,3.473 23.075,0 37.961,-4.218 48.382,-13.646 8.436,-7.444 13.15,-18.857 13.15,-31.759 0,-22.082 -13.894,-36.721 -31.51,-42.676 V -9.18 c 12.902,-4.466 20.594,-16.376 24.563,-33.744 5.459,-23.323 9.429,-39.45 12.903,-45.901 H 65.006 c -2.729,4.962 -6.451,19.104 -11.166,39.946 -4.961,23.075 -13.894,31.759 -33.495,32.504 H 0 v -72.45 h -21.587 z" style="fill:#000000;fill-opacity:1;fill-rule:nonzero;stroke:none" transform="matrix(1.3333333,0,0,-1.3333333,2180.6895,1584.5941)" clip-path="url(#clipPath48)"></path><path id="path49" d="m 1821.607,72.729 h -21.587 v 167.229 h 21.587 z" style="fill:#000000;fill-opacity:1;fill-rule:nonzero;stroke:none" transform="matrix(1.3333333,0,0,-1.3333333,0,1800)" clip-path="url(#clipPath50)"></path><path id="path51" d="M 0,0 V 167.229 H 23.571 L 77.164,82.622 C 89.57,63.022 99.246,45.405 107.186,28.285 l 0.497,0.249 c -1.986,22.329 -2.482,42.675 -2.482,68.727 v 69.968 h 20.346 V 0 H 103.713 L 50.616,84.855 c -11.661,18.609 -22.827,37.714 -31.263,55.826 l -0.744,-0.248 c 1.24,-21.09 1.737,-41.187 1.737,-68.976 L 20.346,0 Z" style="fill:#000000;fill-opacity:1;fill-rule:nonzero;stroke:none" transform="matrix(1.3333333,0,0,-1.3333333,2479.0957,1703.0277)" clip-path="url(#clipPath52)"></path><path id="path53" d="m 0,0 c 5.458,-0.993 13.398,-1.241 21.834,-1.241 46.149,0 71.209,25.804 71.209,70.962 C 93.291,109.17 70.96,134.23 25.308,134.23 14.142,134.23 5.706,133.238 0,131.998 Z m -21.587,147.877 c 13.151,1.984 28.782,3.473 45.902,3.473 31.014,0 53.096,-7.195 67.735,-20.841 14.887,-13.647 23.571,-32.999 23.571,-60.044 0,-27.293 -8.435,-49.623 -24.067,-65.007 -15.631,-15.631 -41.435,-24.067 -73.938,-24.067 -15.384,0 -28.285,0.744 -39.203,1.985 z" style="fill:#000000;fill-opacity:1;fill-rule:nonzero;stroke:none" transform="matrix(1.3333333,0,0,-1.3333333,2725.5627,1680.2011)" clip-path="url(#clipPath54)"></path><path id="path55" d="m 0,0 v -98.997 c 0,-37.466 16.623,-53.346 38.954,-53.346 24.811,0 40.691,16.376 40.691,53.346 V 0 h 21.834 v -97.509 c 0,-51.36 -27.045,-72.45 -63.27,-72.45 -34.239,0 -60.044,19.602 -60.044,71.458 l 0,98.501 z" style="fill:#000000;fill-opacity:1;fill-rule:nonzero;stroke:none" transform="matrix(1.3333333,0,0,-1.3333333,2945.8936,1480.0552)" clip-path="url(#clipPath56)"></path><path id="path57" d="m 0,0 c 9.676,-5.955 23.819,-10.917 38.706,-10.917 22.082,0 34.984,11.661 34.984,28.533 0,15.631 -8.932,24.564 -31.51,33.247 -27.293,9.677 -44.164,23.819 -44.164,47.39 0,26.053 21.585,45.405 54.088,45.405 17.12,0 29.526,-3.97 36.969,-8.187 l -5.954,-17.616 c -5.459,2.977 -16.624,7.939 -31.759,7.939 -22.826,0 -31.511,-13.646 -31.511,-25.059 0,-15.632 10.173,-23.323 33.248,-32.255 28.284,-10.918 42.675,-24.564 42.675,-49.127 0,-25.804 -19.104,-48.383 -58.555,-48.383 -16.127,0 -33.743,4.963 -42.675,10.917 z" style="fill:#000000;fill-opacity:1;fill-rule:nonzero;stroke:none" transform="matrix(1.3333333,0,0,-1.3333333,3127.1875,1667.9607)" clip-path="url(#clipPath58)"></path><path id="path59" d="M 0,0 H -50.863 V 18.36 H 72.946 V 0 H 21.834 V -148.87 H 0 Z" style="fill:#000000;fill-opacity:1;fill-rule:nonzero;stroke:none" transform="matrix(1.3333333,0,0,-1.3333333,3336.6016,1504.5349)" clip-path="url(#clipPath60)"></path><path id="path61" d="m 0,0 h 22.082 c 23.075,0 37.714,12.654 37.714,31.759 0,21.586 -15.632,31.015 -38.458,31.263 C 10.917,63.022 3.473,62.029 0,61.036 Z m -21.587,76.172 c 10.917,2.232 26.549,3.473 41.436,3.473 23.075,0 37.961,-4.218 48.382,-13.646 8.436,-7.444 13.15,-18.857 13.15,-31.759 0,-22.082 -13.894,-36.721 -31.51,-42.676 V -9.18 c 12.902,-4.466 20.593,-16.376 24.563,-33.744 5.459,-23.323 9.429,-39.45 12.902,-45.901 h -22.33 c -2.729,4.962 -6.451,19.104 -11.166,39.946 -4.961,23.075 -13.894,31.759 -33.495,32.504 H 0 v -72.45 h -21.587 z" style="fill:#000000;fill-opacity:1;fill-rule:nonzero;stroke:none" transform="matrix(1.3333333,0,0,-1.3333333,3487.4616,1584.5941)" clip-path="url(#clipPath62)"></path><path id="path63" d="M 2749.086,72.729 H 2727.5 v 167.229 h 21.586 z" style="fill:#000000;fill-opacity:1;fill-rule:nonzero;stroke:none" transform="matrix(1.3333333,0,0,-1.3333333,0,1800)" clip-path="url(#clipPath64)"></path><path id="path65" d="m 0,0 -16.375,48.134 c -3.722,10.917 -6.204,20.842 -8.685,30.518 h -0.496 c -2.481,-9.925 -5.21,-20.097 -8.436,-30.27 L -50.367,0 Z m -54.833,-16.872 -17.368,-52.601 h -22.331 l 56.819,167.23 h 26.051 L 45.405,-69.473 H 22.33 L 4.467,-16.872 Z" style="fill:#000000;fill-opacity:1;fill-rule:nonzero;stroke:none" transform="matrix(1.3333333,0,0,-1.3333333,3824.9056,1610.3975)" clip-path="url(#clipPath66)"></path><path id="path67" d="m 0,0 h 21.587 v -149.117 h 71.457 v -18.112 H 0 Z" style="fill:#000000;fill-opacity:1;fill-rule:nonzero;stroke:none" transform="matrix(1.3333333,0,0,-1.3333333,3918.2044,1480.0552)" clip-path="url(#clipPath68)"></path><path id="path69" d="m 0,0 -16.375,48.134 c -3.722,10.917 -6.203,20.842 -8.685,30.518 h -0.496 c -2.481,-9.925 -5.21,-20.097 -8.436,-30.27 L -50.367,0 Z m -54.833,-16.872 -17.368,-52.601 h -22.33 l 56.818,167.23 h 26.051 L 45.405,-69.473 H 22.331 L 4.466,-16.872 Z" style="fill:#000000;fill-opacity:1;fill-rule:nonzero;stroke:none" transform="matrix(1.3333333,0,0,-1.3333333,4253.6572,1610.3975)" clip-path="url(#clipPath70)"></path><path id="path71" d="m 0,0 c 4.714,-1.241 10.669,-1.737 17.864,-1.737 26.052,0 41.932,12.654 41.932,35.729 0,22.082 -15.632,32.751 -39.451,32.751 C 10.917,66.743 3.721,65.999 0,65.006 Z m -21.586,80.638 c 10.42,1.736 24.066,3.225 41.435,3.225 21.338,0 36.969,-4.962 46.894,-13.894 9.18,-7.94 14.639,-20.098 14.639,-34.985 0,-15.135 -4.466,-27.044 -12.903,-35.729 -11.413,-12.157 -30.021,-18.36 -51.111,-18.36 -6.451,0 -12.406,0.248 -17.368,1.489 v -66.991 h -21.586 z" style="fill:#000000;fill-opacity:1;fill-rule:nonzero;stroke:none" transform="matrix(1.3333333,0,0,-1.3333333,4375.7383,1590.2179)" clip-path="url(#clipPath72)"></path><path id="path73" d="m 0,0 c 4.714,-1.241 10.669,-1.737 17.864,-1.737 26.052,0 41.932,12.654 41.932,35.729 0,22.082 -15.632,32.751 -39.451,32.751 C 10.917,66.743 3.721,65.999 0,65.006 Z m -21.586,80.638 c 10.42,1.736 24.066,3.225 41.435,3.225 21.338,0 36.969,-4.962 46.894,-13.894 9.18,-7.94 14.638,-20.098 14.638,-34.985 0,-15.135 -4.465,-27.044 -12.902,-35.729 -11.413,-12.157 -30.021,-18.36 -51.111,-18.36 -6.451,0 -12.406,0.248 -17.368,1.489 v -66.991 h -21.586 z" style="fill:#000000;fill-opacity:1;fill-rule:nonzero;stroke:none" transform="matrix(1.3333333,0,0,-1.3333333,4551.7416,1590.2179)" clip-path="url(#clipPath74)"></path><path id="path75" d="m 0,0 h 21.587 v -149.117 h 71.457 v -18.112 H 0 Z" style="fill:#000000;fill-opacity:1;fill-rule:nonzero;stroke:none" transform="matrix(1.3333333,0,0,-1.3333333,4698.9625,1480.0552)" clip-path="url(#clipPath76)"></path><path id="path77" d="m 3662.92,72.729 h -21.587 v 167.229 h 21.587 z" style="fill:#000000;fill-opacity:1;fill-rule:nonzero;stroke:none" transform="matrix(1.3333333,0,0,-1.3333333,0,1800)" clip-path="url(#clipPath78)"></path><path id="path79" d="m 0,0 c -7.94,-3.97 -23.819,-8.188 -44.165,-8.188 -47.141,0 -82.622,30.023 -82.622,84.856 0,52.352 35.481,87.832 87.337,87.832 20.841,0 33.991,-4.466 39.698,-7.443 L -4.963,139.44 c -8.187,3.971 -19.849,6.948 -33.744,6.948 -39.201,0 -65.254,-25.059 -65.254,-68.976 0,-40.939 23.571,-67.239 64.263,-67.239 13.15,0 26.548,2.729 35.231,6.947 z" style="fill:#000000;fill-opacity:1;fill-rule:nonzero;stroke:none" transform="matrix(1.3333333,0,0,-1.3333333,5089.9971,1695.7497)" clip-path="url(#clipPath80)"></path><path id="path81" d="m 0,0 -16.375,48.134 c -3.722,10.917 -6.203,20.842 -8.685,30.518 h -0.496 c -2.481,-9.925 -5.21,-20.097 -8.436,-30.27 L -50.367,0 Z m -54.833,-16.872 -17.368,-52.601 h -22.33 l 56.818,167.23 h 26.052 L 45.405,-69.473 H 22.331 L 4.466,-16.872 Z" style="fill:#000000;fill-opacity:1;fill-rule:nonzero;stroke:none" transform="matrix(1.3333333,0,0,-1.3333333,5236.5524,1610.3975)" clip-path="url(#clipPath82)"></path><path id="path83" d="M 0,0 H -50.863 V 18.36 H 72.946 V 0 H 21.834 V -148.87 H 0 Z" style="fill:#000000;fill-opacity:1;fill-rule:nonzero;stroke:none" transform="matrix(1.3333333,0,0,-1.3333333,5346.724,1504.5349)" clip-path="url(#clipPath84)"></path><path id="path85" d="m 4123.188,72.729 h -21.587 v 167.229 h 21.587 z" style="fill:#000000;fill-opacity:1;fill-rule:nonzero;stroke:none" transform="matrix(1.3333333,0,0,-1.3333333,0,1800)" clip-path="url(#clipPath86)"></path><path id="path87" d="m 0,0 c 0,-35.729 19.354,-67.735 53.345,-67.735 34.239,0 53.593,31.51 53.593,69.472 0,33.248 -17.368,67.984 -53.345,67.984 C 17.865,69.721 0,36.721 0,0 m 129.764,2.73 c 0,-57.563 -34.984,-88.081 -77.659,-88.081 -44.165,0 -75.179,34.24 -75.179,84.855 0,53.097 32.999,87.833 77.659,87.833 45.654,0 75.179,-34.984 75.179,-84.607" style="fill:#000000;fill-opacity:1;fill-rule:nonzero;stroke:none" transform="matrix(1.3333333,0,0,-1.3333333,5565.4036,1592.8651)" clip-path="url(#clipPath88)"></path><path id="path89" d="M 0,0 V 167.229 H 23.571 L 77.165,82.622 C 89.57,63.022 99.246,45.405 107.186,28.285 l 0.497,0.249 c -1.986,22.329 -2.481,42.675 -2.481,68.727 v 69.968 h 20.344 V 0 H 103.713 L 50.615,84.855 c -11.66,18.609 -22.826,37.714 -31.261,55.826 l -0.745,-0.248 c 1.241,-21.09 1.737,-41.187 1.737,-68.976 L 20.346,0 Z" style="fill:#000000;fill-opacity:1;fill-rule:nonzero;stroke:none" transform="matrix(1.3333333,0,0,-1.3333333,5775.8125,1703.0277)" clip-path="url(#clipPath90)"></path><path id="path91" d="m 0,0 c 9.676,-5.955 23.819,-10.917 38.706,-10.917 22.082,0 34.984,11.661 34.984,28.533 0,15.631 -8.932,24.564 -31.51,33.247 -27.293,9.677 -44.165,23.819 -44.165,47.39 0,26.053 21.586,45.405 54.089,45.405 17.12,0 29.526,-3.97 36.969,-8.187 l -5.954,-17.616 c -5.459,2.977 -16.624,7.939 -31.759,7.939 -22.826,0 -31.511,-13.646 -31.511,-25.059 0,-15.632 10.173,-23.323 33.248,-32.255 28.285,-10.918 42.675,-24.564 42.675,-49.127 0,-25.804 -19.105,-48.383 -58.555,-48.383 -16.127,0 -33.743,4.963 -42.675,10.917 z" style="fill:#000000;fill-opacity:1;fill-rule:nonzero;stroke:none" transform="matrix(1.3333333,0,0,-1.3333333,5989.528,1667.9607)" clip-path="url(#clipPath92)"></path></g></svg> 