<svg width="176" height="57" viewBox="0 0 176 57" fill="none" xmlns="http://www.w3.org/2000/svg">
<g clip-path="url(#clip0_2223_4720)">
<path d="M24.9461 0L20.8516 12.8418L27.7175 34.4187L34.8398 31.1424L24.9461 0Z" fill="white"/>
<path d="M33.0079 56.2576L26.7387 36.603L2.77137 47.5224L0 56.2576H7.1223H33.0079Z" fill="white"/>
<path d="M26.2687 35.0734L20.0438 15.4619L16.1376 27.7928L16.1202 27.78L11.7392 41.6771L11.7266 41.7122L26.2687 35.0734Z" fill="white"/>
<path d="M58.6964 39.0234H58.5033L49.9249 22.5381H42.7852V56.2814H48.7742V32.062H48.9673L51.5551 37.4267L58.4083 50.1903L65.2616 37.4267L67.8493 32.062H68.0408V56.2814H74.0315V22.5381H67.1783L58.6964 39.0234Z" fill="white"/>
<path d="M98.0438 38.1533C97.4993 36.5423 96.7254 35.1644 95.7187 34.0196C94.7121 32.8748 93.4903 31.9982 92.0531 31.3851C90.6144 30.7736 89.0016 30.467 87.2131 30.467C85.4246 30.467 83.8182 30.7736 82.3969 31.3851C80.974 31.9982 79.76 32.8764 78.7534 34.0196C77.7468 35.1644 76.9713 36.5423 76.4284 38.1533C75.8855 39.7659 75.6133 41.586 75.6133 43.6154C75.6133 45.6447 75.8855 47.476 76.4284 49.103C76.9713 50.7316 77.7468 52.1239 78.7534 53.2846C79.76 54.4438 80.974 55.3315 82.3969 55.943C83.8182 56.5545 85.4231 56.8627 87.2131 56.8627C89.0032 56.8627 90.616 56.5545 92.0531 55.943C93.4918 55.3315 94.7121 54.4454 95.7187 53.2846C96.7254 52.1239 97.4993 50.73 98.0438 49.103C98.5867 47.4744 98.8589 45.6447 98.8589 43.6154C98.8589 41.586 98.5867 39.7643 98.0438 38.1533ZM92.4362 45.9848C92.4362 47.9183 91.9724 49.3856 91.0465 50.3851C90.119 51.3846 88.8418 51.8828 87.2131 51.8828C85.5845 51.8828 84.3531 51.383 83.4272 50.3851C82.4998 49.3856 82.0376 47.9199 82.0376 45.9848V41.297C82.0376 39.3938 82.4998 37.9441 83.4272 36.9462C84.3531 35.9467 85.6146 35.447 87.2131 35.447C88.8117 35.447 90.1206 35.9483 91.0465 36.9462C91.9724 37.9457 92.4362 39.3954 92.4362 41.297V45.9848Z" fill="white"/>
<path d="M111.411 41.1519L108.87 40.8134C107.688 40.6202 106.849 40.3057 106.354 39.8698C105.858 39.4339 105.611 38.7984 105.611 37.9602C105.611 37.1874 105.906 36.5584 106.498 36.0746C107.088 35.5908 108.055 35.3481 109.397 35.3481C110.611 35.3481 111.73 35.6068 112.753 36.1225C113.775 36.6398 114.654 37.2816 115.388 38.056L118.982 34.43C118.375 33.8185 117.751 33.2613 117.113 32.7631C116.474 32.2634 115.771 31.8435 115.005 31.505C114.239 31.1665 113.383 30.9094 112.441 30.7322C111.499 30.555 110.42 30.4656 109.206 30.4656C107.769 30.4656 106.466 30.6508 105.3 31.0212C104.133 31.3916 103.134 31.9233 102.305 32.6162C101.474 33.3092 100.835 34.1474 100.388 35.131C99.9405 36.1145 99.7173 37.2162 99.7173 38.4424C99.7173 40.7639 100.428 42.5282 101.849 43.7352C103.271 44.9455 105.339 45.7262 108.055 46.0807L110.546 46.4192C111.664 46.5821 112.455 46.879 112.919 47.3149C113.381 47.7492 113.614 48.3384 113.614 49.0792C113.614 49.9813 113.286 50.6918 112.631 51.2059C111.976 51.7216 110.914 51.9787 109.443 51.9787C107.973 51.9787 106.735 51.6721 105.634 51.0606C104.532 50.4491 103.516 49.6093 102.59 48.5459L98.8516 52.2198C100.097 53.6711 101.534 54.8063 103.165 55.6286C104.795 56.4493 106.808 56.8612 109.203 56.8612C110.768 56.8612 112.181 56.6584 113.444 56.2561C114.706 55.8537 115.784 55.2901 116.679 54.5636C117.574 53.8372 118.269 52.9686 118.764 51.9531C119.259 50.9393 119.506 49.8184 119.506 48.5938C119.506 44.4042 116.806 41.9215 111.407 41.1487L111.411 41.1519Z" fill="white"/>
<path d="M141.94 39.4386C141.94 36.5438 141.06 34.3261 139.303 32.7822C137.546 31.2382 134.973 30.467 131.587 30.467C129.063 30.467 127.034 30.9141 125.502 31.805C123.968 32.6959 122.738 33.8711 121.811 35.3304L125.454 38.637C126.06 37.7669 126.803 37.018 127.683 36.389C128.561 35.7599 129.72 35.4454 131.157 35.4454C132.787 35.4454 133.968 35.8317 134.704 36.6061C135.438 37.3789 135.805 38.4758 135.805 39.8936V41.7313H131.54C128.121 41.7313 125.484 42.3652 123.632 43.6345C121.779 44.9038 120.852 46.8406 120.852 49.4415C120.852 51.6912 121.538 53.4906 122.912 54.8397C124.286 56.1889 126.25 56.8627 128.806 56.8627C130.691 56.8627 132.273 56.4507 133.551 55.6301C134.829 54.8078 135.675 53.5752 136.092 51.9307H136.38C136.571 53.2527 137.059 54.3081 137.842 55.0984C138.624 55.8887 139.688 56.2815 141.028 56.2815H144.431V51.3032H141.94V39.437V39.4386ZM135.805 48.7645C135.805 49.9492 135.326 50.8465 134.367 51.4533C133.407 52.0616 132.241 52.3649 130.867 52.3649C129.653 52.3649 128.718 52.1175 128.064 51.6209C127.409 51.1259 127.081 50.3644 127.081 49.3393V48.5234C127.081 46.4749 128.678 45.4515 131.874 45.4515H135.804V48.7629L135.805 48.7645Z" fill="white"/>
<path d="M149.223 20.2166C147.944 20.2166 147.026 20.5071 146.468 21.0867C145.909 21.6679 145.629 22.4087 145.629 23.3108V24.2784C145.629 25.1805 145.907 25.9213 146.468 26.5025C147.026 27.0821 147.946 27.3727 149.223 27.3727C150.501 27.3727 151.379 27.0821 151.955 26.5025C152.53 25.9213 152.818 25.1805 152.818 24.2784V23.3108C152.818 22.4087 152.53 21.6679 151.955 21.0867C151.379 20.5071 150.469 20.2166 149.223 20.2166Z" fill="white"/>
<path d="M152.291 31.0466H146.156V56.2815H152.291V31.0466Z" fill="white"/>
<path d="M171.268 47.9184C170.82 49.0473 170.197 49.9909 169.399 50.7477C168.6 51.5045 167.465 51.8829 165.996 51.8829C164.271 51.8829 162.984 51.3432 162.139 50.2639C161.292 49.1846 160.868 47.7588 160.868 45.9849V41.3914C160.868 39.6191 161.291 38.1853 162.139 37.09C162.984 35.9947 164.271 35.4455 165.996 35.4455C167.338 35.4455 168.4 35.792 169.184 36.4849C169.966 37.1778 170.501 38.056 170.789 39.1194L175.82 36.8473C175.086 34.8499 173.896 33.2852 172.249 32.158C170.603 31.0292 168.519 30.4656 165.995 30.4656C164.141 30.4656 162.495 30.7721 161.058 31.3836C159.619 31.9968 158.413 32.8749 157.44 34.0181C156.465 35.1629 155.723 36.5408 155.211 38.1518C154.7 39.7644 154.445 41.5846 154.445 43.6139C154.445 45.6432 154.7 47.4746 155.211 49.1015C155.723 50.7301 156.465 52.1224 157.44 53.2831C158.415 54.4423 159.621 55.33 161.058 55.9415C162.495 56.5531 164.141 56.8612 165.995 56.8612C168.422 56.8612 170.483 56.3056 172.177 55.1943C173.869 54.0815 175.132 52.4146 175.963 50.1905L171.267 47.9184H171.268Z" fill="white"/>
</g>
<defs>
<clipPath id="clip0_2223_4720">
<rect width="176" height="57" fill="white"/>
</clipPath>
</defs>
</svg>
